0
SECTION
2
HEADER
9
$INSUNITS
70
4
9
$ACADVER
1
AC1014
9
$HANDSEED
5
FFFF
0
ENDSEC
0
SECTION
2
TABLES
0
TABLE
2
VPORT
5
8
100
AcDbSymbolTable
0
ENDTAB
0
TABLE
2
LTYPE
5
5
100
AcDbSymbolTable
0
LTYPE
5
14
100
AcDbSymbolTableRecord
100
AcDbLinetypeTableRecord
2
BYBLOCK
70
0
0
LTYPE
5
15
100
AcDbSymbolTableRecord
100
AcDbLinetypeTableRecord
2
BYLAYER
70
0
0
LTYPE
5
16
100
AcDbSymbolTableRecord
100
AcDbLinetypeTableRecord
2
DASHED
70
0
3
Dashed __ __ __ __ __ __ __ __ __ __ __ __ __ _
72
65
73
2
40
0.75
49
0.5
74
0
49
-0.25
74
0
0
ENDTAB
0
TABLE
2
LAYER
5
2
100
AcDbSymbolTable
70
2
0
LAYER
5
50
100
AcDbSymbolTableRecord
100
AcDbLayerTableRecord
2
0
70
0
62
7
6
CONTINUOUS
0
ENDTAB
0
TABLE
2
STYLE
5
3
100
AcDbSymbolTable
70
1
0
STYLE
5
11
100
AcDbSymbolTableRecord
100
AcDbTextStyleTableRecord
2
STANDARD
70
0
0
ENDTAB
0
TABLE
2
VIEW
5
6
100
AcDbSymbolTable
70
0
0
ENDTAB
0
TABLE
2
UCS
5
7
100
AcDbSymbolTable
70
0
0
ENDTAB
0
TABLE
2
APPID
5
9
100
AcDbSymbolTable
70
2
0
APPID
5
12
100
AcDbSymbolTableRecord
100
AcDbRegAppTableRecord
2
ACAD
70
0
0
ENDTAB
0
TABLE
2
DIMSTYLE
5
A
100
AcDbSymbolTable
70
1
0
ENDTAB
0
TABLE
2
BLOCK_RECORD
5
1
100
AcDbSymbolTable
70
1
0
BLOCK_RECORD
5
1F
100
AcDbSymbolTableRecord
100
AcDbBlockTableRecord
2
*MODEL_SPACE
0
BLOCK_RECORD
5
1B
100
AcDbSymbolTableRecord
100
AcDbBlockTableRecord
2
*PAPER_SPACE
0
ENDTAB
0
ENDSEC
0
SECTION
2
BLOCKS
0
BLOCK
5
20
100
AcDbEntity
100
AcDbBlockBegin
2
*MODEL_SPACE
0
ENDBLK
5
21
100
AcDbEntity
100
AcDbBlockEnd
0
BLOCK
5
1C
100
AcDbEntity
100
AcDbBlockBegin
2
*PAPER_SPACE
0
ENDBLK
5
1D
100
AcDbEntity
100
AcDbBlockEnd
0
ENDSEC
0
SECTION
2
ENTITIES
0
LWPOLYLINE
5
100
100
AcDbEntity
8
0
100
AcDbPolyline
90
4
70
1
43
0.0
10
212.00000000000003
20
94.01553061150436
10
212.00000000000003
20
254.01553061150437
10
-88
20
254.01553061150437
10
-88
20
94.015530611504374
0
LWPOLYLINE
5
101
100
AcDbEntity
8
0
100
AcDbPolyline
90
26
70
1
43
0.0
10
43.675961742445637
20
249.6730479520798
10
43.471959246679944
20
249.25598093833926
10
43.362448341706596
20
249.12246760854725
10
43.119429772545494
20
248.87944557437896
10
42.985922108357748
20
248.76993687000277
10
42.568908198757171
20
248.56593570499422
10
42.015867828375512
20
248.47690647125248
10
41.461835580501557
20
248.56593570499422
10
41.044821670900987
20
248.76993687000277
10
40.911314960441594
20
248.87944557437896
10
40.668797098668421
20
249.1224676085472
10
40.559785947354641
20
249.25598093833926
10
40.354774406986238
20
249.6730479520798
10
40.26576866170884
20
250.22709240875244
10
40.354774406986238
20
250.78016019916535
10
40.559785947354641
20
251.1971966920853
10
40.668797098668421
20
251.33071002187731
10
40.911314960441594
20
251.57373205604554
10
41.044821670900987
20
251.68324076042177
10
41.461835580501557
20
251.8872724462509
10
42.015867828375512
20
251.97727834625243
10
42.568908198757171
20
251.8872724462509
10
42.985922108357748
20
251.68324076042177
10
43.471959246679944
20
251.1971966920853
10
43.675961742445637
20
250.78016019916535
10
43.765966995042163
20
250.22709240875244
0
LWPOLYLINE
5
102
100
AcDbEntity
8
0
100
AcDbPolyline
90
24
70
1
43
0.0
10
-13.730991008758537
20
250.17407774333952
10
-13.641187946573893
20
250.72714553375246
10
-13.437074818318679
20
251.14418202667238
10
-12.951749161351515
20
251.6302566158295
10
-12.534321333643589
20
251.83425778083802
10
-11.980891842091879
20
251.92426368083957
10
-11.427462350540154
20
251.83425778083802
10
-11.010133710581458
20
251.6302566158295
10
-10.524808053614294
20
251.14418202667238
10
-10.320694925359078
20
250.72714553375246
10
-10.230792675425207
20
250.17407774333952
10
-10.320694925359078
20
249.62003328666691
10
-10.524808053614294
20
249.20299679374693
10
-10.634116768175762
20
249.06948346395495
10
-10.876779596659343
20
248.8269497629166
10
-11.010133710581458
20
248.71792939167022
10
-11.427462350540154
20
248.5129210395813
10
-11.980891842091879
20
248.42389180583953
10
-12.534321333643589
20
248.5129210395813
10
-12.951749161351515
20
248.71792939167022
10
-13.085107090187067
20
248.8269497629166
10
-13.327769918670649
20
249.06948346395495
10
-13.437074818318679
20
249.20299679374693
10
-13.641187946573893
20
249.62003328666691
0
LWPOLYLINE
5
103
100
AcDbEntity
8
0
100
AcDbPolyline
90
26
70
1
43
0.0
10
110.62125480417889
20
251.54923909749985
10
110.75476151463826
20
251.65824420833587
10
111.17179640626273
20
251.86227589416504
10
111.72481770207723
20
251.95228179416659
10
112.27884994995117
20
251.86227589416504
10
112.69586195209504
20
251.65824420833587
10
113.18089004581452
20
251.17320732707981
10
113.38591112346649
20
250.75614031333927
10
113.4749168687439
20
250.2020958566666
10
113.38591112346649
20
249.64902806625366
10
113.18089004581452
20
249.2309843862534
10
113.07189415415445
20
249.09797465000153
10
112.82938010729472
20
248.8554562093735
10
112.69586195209504
20
248.74594750499725
10
112.27884994995117
20
248.54191581916808
10
111.72481770207723
20
248.45190991916655
10
111.17179640626273
20
248.54191581916808
10
110.75476151463826
20
248.74594750499725
10
110.62125480417889
20
248.8554562093735
10
110.37824672602973
20
249.09797465000153
10
110.26874535833996
20
249.2309843862534
10
110.0647237880071
20
249.64902806625366
10
109.97471853541057
20
250.2020958566666
10
110.0647237880071
20
250.75614031333927
10
110.26874535833996
20
251.17320732707981
10
110.37824672602973
20
251.30672065687179
0
LWPOLYLINE
5
104
100
AcDbEntity
8
0
100
AcDbPolyline
90
24
70
1
43
0.0
10
99.036098990084326
20
236.56664455833436
10
98.92659190002442
20
236.43313122854235
10
98.683578099505112
20
236.19010919437412
10
98.550071389045712
20
236.08060048999789
10
98.133047942161582
20
235.87656880416873
10
97.579015694287619
20
235.78757009124757
10
97.025982953732807
20
235.87656880416873
10
96.608951877021795
20
236.08060048999789
10
96.475448981475836
20
236.19010919437412
10
96.232438995869956
20
236.43313122854235
10
96.122931905810049
20
236.56664455833436
10
95.918933224957783
20
236.98368105125428
10
95.828916527620947
20
237.53775602874757
10
95.918933224957783
20
238.09082381916045
10
96.122931905810049
20
238.50786031208037
10
96.608951877021795
20
238.99390438041689
10
97.025982953732807
20
239.19793606624606
10
97.579015694287619
20
239.28794196624756
10
98.133047942161582
20
239.19793606624606
10
98.550071389045712
20
238.99390438041689
10
99.036098990084326
20
238.50786031208037
10
99.240120560417182
20
238.09082381916045
10
99.329114860954292
20
237.53775602874757
10
99.240120560417182
20
236.98368105125428
0
LWPOLYLINE
5
105
100
AcDbEntity
8
0
100
AcDbPolyline
90
24
70
1
43
0.0
10
128.47878065035502
20
248.5129210395813
10
128.06075006632489
20
248.71792939167022
10
127.92723572603863
20
248.8269497629166
10
127.68472167917886
20
249.06948346395495
10
127.57572197260538
20
249.20299679374693
10
127.37170040227255
20
249.62003328666691
10
127.28169896458944
20
250.17407774333952
10
127.37170040227255
20
250.72714553375246
10
127.57572197260538
20
251.14418202667238
10
127.68472167917886
20
251.27771061687469
10
127.92723572603862
20
251.52074791145324
10
128.06075006632489
20
251.6302566158295
10
128.47878065035502
20
251.83425778083802
10
129.0317981312561
20
251.92426368083957
10
129.58482324198405
20
251.83425778083802
10
130.00284619618733
20
251.6302566158295
10
130.48787428990681
20
251.14418202667238
10
130.69189586023964
20
250.72714553375246
10
130.7818972979228
20
250.17407774333952
10
130.69189586023964
20
249.62003328666691
10
130.48787428990681
20
249.20299679374693
10
130.00284619618733
20
248.71792939167022
10
129.58482324198405
20
248.5129210395813
10
129.0317981312561
20
248.42389180583953
0
LWPOLYLINE
5
106
100
AcDbEntity
8
0
100
AcDbPolyline
90
26
70
1
43
0.0
10
-52.665448146209712
20
236.51114244604113
10
-52.908164383481342
20
236.26862400541307
10
-53.041522312316893
20
236.15961889457705
10
-53.458843322448729
20
235.95558720874789
10
-54.01227281400044
20
235.86558130874636
10
-54.565702305552151
20
235.95558720874789
10
-54.983130133260083
20
236.15961889457705
10
-55.116480432268773
20
236.2686240054131
10
-55.359143260752354
20
236.51114244604111
10
-55.468455790227239
20
236.64465577583314
10
-55.672568918482455
20
237.06169226875306
10
-55.762371980667112
20
237.61576724624635
10
-55.672568918482455
20
238.16880451583864
10
-55.468455790227239
20
238.58587152957915
10
-55.359143260752354
20
238.71938485937119
10
-55.116480432268773
20
238.96240689353945
10
-54.983130133260083
20
239.07191559791568
10
-54.565702305552151
20
239.27594728374484
10
-54.01227281400044
20
239.36595318374634
10
-53.458843322448729
20
239.27594728374484
10
-53.041522312316893
20
239.07191559791568
10
-52.556089837773634
20
238.58587152957915
10
-52.351976709518425
20
238.16880451583864
10
-52.262173647333768
20
237.61576724624635
10
-52.351976709518425
20
237.06169226875306
10
-52.556089837773634
20
236.64465577583314
0
LWPOLYLINE
5
107
100
AcDbEntity
8
0
100
AcDbPolyline
90
32
70
1
43
0.0
10
-3.6478162066396043
20
226.51058353958132
10
-3.5580131444549465
20
227.06365132999423
10
-3.353900016199745
20
227.48169500999452
10
-2.8684751714833538
20
227.96673189125062
10
-2.4511541613515107
20
228.17076357707978
10
-1.8977208548863658
20
228.26076947708131
10
-1.8676173729960086
20
228.25576406250002
10
-1.8676173729960086
20
228.26076947708131
10
13.796268396364852
20
228.26076947708131
10
13.796268396364852
20
228.2507586479187
10
14.28729734891256
20
228.17076357707978
10
14.704320795796718
20
227.96673189125062
10
14.837827506256112
20
227.85722318687442
10
15.080341553115847
20
227.61470474624633
10
15.189348889516197
20
227.48169500999452
10
15.393359015108752
20
227.06365132999423
10
15.483364267705284
20
226.51058353958132
10
15.393359015108752
20
225.95650856208803
10
15.189348889516197
20
225.53947206916808
10
15.080341553115847
20
225.40595873937608
10
14.837827506256112
20
225.16344029874801
10
14.704320795796718
20
225.05443518791199
10
14.28729734891256
20
224.85040350208283
10
13.796268396364852
20
224.77040843124394
10
13.796268396364852
20
224.7603976020813
10
-1.8676173729960088
20
224.7603976020813
10
-1.8676173729960086
20
224.76540301666262
10
-1.8977208548863658
20
224.7603976020813
10
-2.4511541613515107
20
224.85040350208283
10
-2.8684751714833538
20
225.05443518791199
10
-3.353900016199745
20
225.53947206916808
10
-3.5580131444549465
20
225.95650856208803
0
LWPOLYLINE
5
108
100
AcDbEntity
8
0
100
AcDbPolyline
90
22
70
1
43
0.0
10
-11.427462350540154
20
231.88514744625095
10
-11.010133710581458
20
231.68111576042179
10
-10.524808053614294
20
231.19607887916567
10
-10.320694925359078
20
230.77904238624572
10
-10.230792675425207
20
230.22496740875243
10
-10.320694925359078
20
229.67189961833952
10
-10.524808053614294
20
229.25486312541963
10
-10.634116768175756
20
229.12134979562762
10
-10.876779596659338
20
228.87832776145939
10
-11.010133710581458
20
228.76881905708316
10
-11.427462350540154
20
228.564787371254
10
-11.980891842091879
20
228.47478147125244
10
-12.534321333643589
20
228.564787371254
10
-12.951749161351515
20
228.76881905708316
10
-13.437074818318679
20
229.25486312541963
10
-13.641187946573893
20
229.67189961833952
10
-13.730991008758537
20
230.22496740875243
10
-13.641187946573893
20
230.77904238624572
10
-13.437074818318679
20
231.19607887916567
10
-12.951749161351515
20
231.68111576042179
10
-12.534321333643589
20
231.88514744625095
10
-11.980891842091879
20
231.97515334625245
0
LWPOLYLINE
5
109
100
AcDbEntity
8
0
100
AcDbPolyline
90
28
70
1
43
0.0
10
138.45033108545937
20
227.06365132999423
10
138.65432976631163
20
227.48169500999452
10
139.13935786003111
20
227.96673189125062
10
139.55639656656899
20
228.17076357707978
10
140.11042881444294
20
228.26076947708131
10
140.14042929367065
20
228.25576406250002
10
140.14042929367065
20
228.26076947708131
10
155.80431887794492
20
228.26076947708131
10
155.80431887794492
20
228.2507586479187
10
156.29533638575236
20
228.17076357707978
10
156.71236746246336
20
227.96673189125062
10
157.19739555618287
20
227.48169500999452
10
157.40140949668884
20
227.06365132999423
10
157.49140330454509
20
226.51058353958132
10
157.40140949668884
20
225.95751574916844
10
157.19739555618287
20
225.53947206916808
10
156.71236746246336
20
225.05443518791199
10
156.29533638575236
20
224.85040350208283
10
155.80431887794492
20
224.77040843124394
10
155.80431887794492
20
224.7603976020813
10
140.14042929367065
20
224.7603976020813
10
140.14042929367065
20
224.76540301666262
10
140.11042881444294
20
224.7603976020813
10
139.55639656656899
20
224.85040350208283
10
139.13935786003111
20
225.05443518791199
10
138.65432976631163
20
225.53947206916808
10
138.45033108545937
20
225.95751574916844
10
138.36032964777627
20
226.51058353958132
0
LWPOLYLINE
5
110
100
AcDbEntity
8
0
100
AcDbPolyline
90
26
70
1
43
0.0
10
182.05779013292951
20
248.76993687000277
10
181.92428723738348
20
248.87944557437896
10
181.68128106669113
20
249.1224676085472
10
181.57177779154463
20
249.25598093833926
10
181.36775622121175
20
249.6730479520798
10
181.2777624133555
20
250.22709240875244
10
181.36775622121175
20
250.78016019916535
10
181.57177779154463
20
251.1971966920853
10
181.68128106669113
20
251.33071002187731
10
181.92428723738357
20
251.57373205604554
10
182.05779013292951
20
251.68324076042177
10
182.47481357981366
20
251.8872724462509
10
183.02786158002218
20
251.97727834625243
10
183.58190145772298
20
251.8872724462509
10
183.99890964495341
20
251.68324076042177
10
184.48393010884604
20
251.1971966920853
10
184.68795167917887
20
250.78016019916535
10
184.77796074668885
20
250.22709240875244
10
184.68795167917887
20
249.6730479520798
10
184.48393010884604
20
249.25598093833926
10
184.37493040227253
20
249.1224676085472
10
184.13242017032627
20
248.87944557437896
10
183.99890964495341
20
248.76993687000277
10
183.58190145772298
20
248.56593570499422
10
183.02786158002218
20
248.47690647125248
10
182.47481357981366
20
248.56593570499422
0
LWPOLYLINE
5
111
100
AcDbEntity
8
0
100
AcDbPolyline
90
36
70
1
43
0.0
10
140.11042881444294
20
123.24960750442743
10
140.14042929367065
20
123.24460781249999
10
140.14042929367065
20
123.24960750442743
10
155.80431887794492
20
123.24960750442743
10
155.80431887794492
20
123.23960812057258
10
156.29533638575236
20
123.15960923463108
10
156.71236746246336
20
122.95557754880191
10
156.84587417292275
20
122.84606598309875
10
157.08838821978253
20
122.60354468114379
10
157.19739555618287
20
122.47053494489194
10
157.40140949668884
20
122.05249126489164
10
157.49140330454509
20
121.49942156692745
10
157.40140949668884
20
120.94535421963931
10
157.19739555618287
20
120.52831963427067
10
157.08838821978247
20
120.394805350703
10
156.84587417292275
20
120.15228404874803
10
156.71236746246336
20
120.0432770303607
10
156.29533638575236
20
119.83924534453153
10
155.80431887794492
20
119.75924836614134
10
155.80431887794492
20
119.74923562942743
10
140.14042929367065
20
119.74923562942743
10
140.14042929367065
20
119.75424676666262
10
140.11042881444294
20
119.74923562942743
10
139.55738844406127
20
119.83924534453153
10
139.13935786003111
20
120.0432770303607
10
139.00585496448514
20
120.15228404874803
10
138.76334091762541
20
120.39480535070302
10
138.65432976631163
20
120.52831963427067
10
138.45033108545937
20
120.94535421963931
10
138.36032964777627
20
121.49942156692745
10
138.45033108545937
20
122.05249126489164
10
138.65432976631163
20
122.47053494489194
10
138.76334091762541
20
122.60354468114379
10
139.0058549644852
20
122.84606598309877
10
139.13935786003111
20
122.95557754880191
10
139.55738844406127
20
123.15960923463108
0
LWPOLYLINE
5
112
100
AcDbEntity
8
0
100
AcDbPolyline
90
28
70
1
43
0.0
10
-36.271468059183746
20
116.75191745760442
10
-36.380772958831777
20
116.61840317403674
10
-36.623485381189973
20
116.3758828258574
10
-36.756892903900138
20
116.26687676124574
10
-37.174206284205113
20
116.06284507541658
10
-37.72765103541056
20
115.97283536031247
10
-38.28108052696227
20
116.06284507541658
10
-38.698409166920968
20
116.26687676124574
10
-38.831763280843091
20
116.3758828258574
10
-39.074475703201294
20
116.61840317403674
10
-39.183834011637359
20
116.75191745760442
10
-39.387947139892574
20
117.16895204297305
10
-39.477750202077218
20
117.72302129781247
10
-39.387947139892574
20
118.27608908822538
10
-39.183834011637359
20
118.69313511890175
10
-39.074475703201287
20
118.82664367981555
10
-38.831763280843091
20
119.06966380643249
10
-38.698409166920968
20
119.17917537213566
10
-38.28108052696227
20
119.3832070579648
10
-37.72765103541056
20
119.47320723531247
10
-37.174206284205113
20
119.3832070579648
10
-36.756892903900138
20
119.17917537213566
10
-36.623485381189973
20
119.06966380643249
10
-36.380772958831777
20
118.82664367981555
10
-36.271468059183746
20
118.69313511890175
10
-36.067354930928545
20
118.27608908822538
10
-35.977551868743888
20
117.72302129781247
10
-36.067354930928545
20
117.16895204297305
0
LWPOLYLINE
5
113
100
AcDbEntity
8
0
100
AcDbPolyline
90
22
70
1
43
0.0
10
28.68011118649801
20
116.75191745760442
10
28.57060600389481
20
116.61840317403674
10
28.32809195703507
20
116.3758828258574
10
28.195083092778525
20
116.26687676124574
10
27.777060138575237
20
116.06284507541658
10
27.224031212933859
20
115.97283536031247
10
26.669998965059918
20
116.06284507541658
10
26.252975518175766
20
116.26687676124574
10
25.767947424456281
20
116.75191745760442
10
25.563937298863735
20
117.16895204297305
10
25.473932046267194
20
117.72302129781247
10
25.563937298863735
20
118.27608908822538
10
25.767947424456281
20
118.69313511890175
10
26.252975518175766
20
119.17917537213566
10
26.669998965059918
20
119.3832070579648
10
27.224031212933859
20
119.47320723531247
10
27.777060138575237
20
119.3832070579648
10
28.195083092778525
20
119.17917537213566
10
28.68011118649801
20
118.69313511890175
10
28.88412512700399
20
118.27608908822538
10
28.974130379600528
20
117.72302129781247
10
28.88412512700399
20
117.16895204297305
0
LWPOLYLINE
5
114
100
AcDbEntity
8
0
100
AcDbPolyline
90
26
70
1
43
0.0
10
127.86473218437195
20
119.06966380643249
10
127.99774295608522
20
119.17917537213566
10
128.41576591028848
20
119.3832070579648
10
128.96879102101644
20
119.47320723531247
10
129.52183902122499
20
119.3832070579648
10
129.93984671577454
20
119.17917537213566
10
130.42489006914775
20
118.69313511890175
10
130.62888874999999
20
118.27608908822538
10
130.71889018768309
20
117.72302129781247
10
130.62888874999999
20
117.16895204297305
10
130.42489006914775
20
116.75191745760442
10
130.31537916417443
20
116.61840317403674
10
130.07285748748779
20
116.3758828258574
10
129.93984671577454
20
116.26687676124574
10
129.52183902122499
20
116.06284507541658
10
128.96879102101644
20
115.97283536031247
10
128.41576591028848
20
116.06284507541658
10
127.99774295608522
20
116.26687676124574
10
127.86473218437195
20
116.3758828258574
10
127.62221813751219
20
116.61840317403674
10
127.51271486236573
20
116.75191745760442
10
127.30869329203287
20
117.16895204297305
10
127.21869185434977
20
117.72302129781247
10
127.30869329203287
20
118.27608908822538
10
127.51271486236573
20
118.69313511890175
10
127.62221813751222
20
118.82664367981555
0
LWPOLYLINE
5
115
100
AcDbEntity
8
0
100
AcDbPolyline
90
26
70
1
43
0.0
10
-53.103835108311976
20
108.9220765693009
10
-53.52114848861693
20
108.71807445051671
10
-54.074577980168655
20
108.62806473541261
10
-54.628007471720366
20
108.71807445051671
10
-55.045328481852209
20
108.9220765693009
10
-55.178736004562374
20
109.0315981496483
10
-55.421452241833997
20
109.27463401356341
10
-55.530760956395461
20
109.40814829713106
10
-55.73487408465067
20
109.82518192872405
10
-55.824677146835313
20
110.3782506729126
10
-55.73487408465067
20
110.93229894468784
10
-55.530760956395461
20
111.34933353005648
10
-55.421452241833997
20
111.48284781362413
10
-55.178736004562374
20
111.7253786533356
10
-55.045328481852209
20
111.83439520947935
10
-54.628007471720366
20
112.03842689530852
10
-54.074577980168655
20
112.12843661041261
10
-53.52114848861693
20
112.03842689530852
10
-53.103835108311976
20
111.83439520947935
10
-52.618395003941849
20
111.34933353005648
10
-52.414281875686648
20
110.93229894468784
10
-52.324478813501983
20
110.3782506729126
10
-52.414281875686648
20
109.82518192872405
10
-52.618395003941849
20
109.40814829713106
10
-52.727749497464487
20
109.2746340135634
10
-52.97046954964955
20
109.0315981496483
0
LWPOLYLINE
5
116
100
AcDbEntity
8
0
100
AcDbPolyline
90
28
70
1
43
0.0
10
85.36232385103861
20
109.0315981496483
10
85.119810757907231
20
109.27463401356341
10
85.010304621575671
20
109.40814829713106
10
84.806283051242829
20
109.82518192872405
10
84.716287335929877
20
110.3782506729126
10
84.806283051242829
20
110.93229894468784
10
85.010304621575671
20
111.34933353005648
10
85.119810757907231
20
111.48284781362415
10
85.362323851038639
20
111.72537865333558
10
85.495330807838442
20
111.83439520947935
10
85.913355669498443
20
112.03842689530852
10
86.466386502596535
20
112.12843661041261
10
87.019426872978215
20
112.03842689530852
10
87.437442197354628
20
111.83439520947935
10
87.570948907814014
20
111.7253786533356
10
87.813466769587194
20
111.48284781362413
10
87.922477920900974
20
111.34933353005648
10
88.126480416666681
20
110.93229894468784
10
88.216485669263207
20
110.3782506729126
10
88.126480416666681
20
109.82518192872405
10
87.922477920900974
20
109.40814829713106
10
87.813466769587194
20
109.27463401356341
10
87.570948907814028
20
109.0315981496483
10
87.437442197354628
20
108.9220765693009
10
87.019426872978215
20
108.71807445051671
10
86.466386502596535
20
108.62806473541261
10
85.913355669498443
20
108.71807445051671
10
85.495330807838442
20
108.9220765693009
0
LWPOLYLINE
5
117
100
AcDbEntity
8
0
100
AcDbPolyline
90
26
70
1
43
0.0
10
-27.812187457580567
20
96.886807574674506
10
-27.921496172142028
20
96.753793427210312
10
-28.164159000625606
20
96.511267714042987
10
-28.29751311454773
20
96.401756148339814
10
-28.714940942255652
20
96.197724462510649
10
-29.268370433807362
20
96.107724762050822
10
-29.821799925359088
20
96.197724462510649
10
-30.239128565317785
20
96.401756148339814
10
-30.372486494153339
20
96.511267714042958
10
-30.615198916511535
20
96.753793427210297
10
-30.724553410034176
20
96.886807574674506
10
-30.928666538289381
20
97.304851970006538
10
-31.018469600474035
20
97.857910699550814
10
-30.928666538289381
20
98.411969701302056
10
-30.724553410034176
20
98.829023839071397
10
-30.615198916511535
20
98.962533115316944
10
-30.372486494153339
20
99.20505894770622
10
-30.239128565317785
20
99.314075503849978
10
-29.821799925359088
20
99.518087160390621
10
-29.268370433807362
20
99.608096875494724
10
-28.714940942255652
20
99.518087160390621
10
-28.29751311454773
20
99.314075503850006
10
-27.812187457580567
20
98.829023839071397
10
-27.608074329325348
20
98.411969701302056
10
-27.518271267140708
20
97.857910699550814
10
-27.608074329325348
20
97.304851970006538
0
LWPOLYLINE
5
118
100
AcDbEntity
8
0
100
AcDbPolyline
90
22
70
1
43
0.0
10
110.01772023961387
20
97.857910699550814
10
110.10772549221039
20
98.411969701302056
10
110.31174706254325
20
98.829023839071397
10
110.42124843023302
20
98.962533115316944
10
110.66376247709275
20
99.20505894770622
10
110.79677515626273
20
99.314075503849978
10
111.21479811046601
20
99.518087160390621
10
111.76781940628054
20
99.608096875494724
10
112.32084070209503
20
99.518087160390621
10
112.73886365629834
20
99.314075503849978
10
113.22389175001781
20
98.829023839071397
10
113.42791332035064
20
98.411969701302056
10
113.5179185729472
20
97.857910699550814
10
113.42791332035064
20
97.304851970006538
10
113.22389175001781
20
96.886807574674506
10
112.73886365629834
20
96.401756148339814
10
112.32084070209503
20
96.197724462510649
10
111.76781940628054
20
96.107724762050822
10
111.21479811046601
20
96.197724462510649
10
110.79677515626273
20
96.401756148339814
10
110.31174706254325
20
96.886807574674506
10
110.10772549221039
20
97.304851970006538
0
LWPOLYLINE
5
119
100
AcDbEntity
8
0
100
AcDbPolyline
90
26
70
1
43
0.0
10
181.71828191206612
20
98.962533115316944
10
181.96130715732576
20
99.20505894770622
10
182.09481768269856
20
99.314075503850006
10
182.511825869929
20
99.518087160390621
10
183.06585048797609
20
99.608096875494724
10
183.61889085835776
20
99.518087160390621
10
184.03590667541505
20
99.314075503850006
10
184.5219495361074
20
98.829023839071397
10
184.72594058713275
20
98.411969701302056
10
184.81594965464274
20
97.857910699550814
10
184.72594058713275
20
97.304851970006538
10
184.5219495361074
20
96.886807574674506
10
184.41243481622064
20
96.753793427210297
10
184.16941338587446
20
96.511267714042958
10
184.03590667541505
20
96.401756148339814
10
183.61889085835776
20
96.197724462510649
10
183.06585048797609
20
96.107724762050822
10
182.511825869929
20
96.197724462510649
10
182.09481768269856
20
96.401756148339814
10
181.96130715732576
20
96.511267714042987
10
181.71828191206615
20
96.753793427210312
10
181.60876719217936
20
96.886807574674506
10
181.40477614115395
20
97.304851970006538
10
181.31575132130939
20
97.857910699550814
10
181.40477614115395
20
98.411969701302056
10
181.60876719217936
20
98.829023839071397
0
LWPOLYLINE
5
120
100
AcDbEntity
8
0
100
AcDbPolyline
90
22
70
1
43
0.0
10
127.95823571258545
20
99.20505894770622
10
128.09174242304482
20
99.314075503850006
10
128.50876586992899
20
99.518087160390621
10
129.06281337745668
20
99.608096875494724
10
129.61583085835775
20
99.518087160390621
10
130.03286193506875
20
99.314075503849978
10
130.51888190628051
20
98.829023839071397
10
130.72288058713275
20
98.411969701302056
10
130.81291254412332
20
97.857910699550814
10
130.72288058713275
20
97.304851970006538
10
130.51888190628051
20
96.886807574674506
10
130.03286193506875
20
96.401756148339814
10
129.61583085835775
20
96.197724462510649
10
129.06281337745668
20
96.107724762050822
10
128.50876586992899
20
96.197724462510649
10
128.09174242304482
20
96.401756148339814
10
127.60573008165994
20
96.886807574674506
10
127.40169325167338
20
97.304851970006538
10
127.31271421079001
20
97.857910699550814
10
127.40169325167338
20
98.411969701302056
10
127.60573008165994
20
98.829023839071397
10
127.71522954189301
20
98.962533115316944
0
LWPOLYLINE
5
121
100
AcDbEntity
8
0
100
AcDbPolyline
90
22
70
1
43
0.0
10
40.368775139280963
20
97.304851970006538
10
40.278769886684415
20
97.857910699550814
10
40.368775139280963
20
98.411969701302056
10
40.572796709613797
20
98.829023839071397
10
40.682297123575211
20
98.962533115316944
10
40.925305201724377
20
99.20505894770622
10
41.058812865912124
20
99.314075503850006
10
41.47584775753657
20
99.518087160390621
10
42.028869053351087
20
99.608096875494724
10
42.582899393768315
20
99.518087160390621
10
42.999934285392769
20
99.314075503849978
10
43.48494139708837
20
98.829023839071397
10
43.688962967421219
20
98.411969701302056
10
43.778968220017759
20
97.857910699550814
10
43.688962967421219
20
97.304851970006538
10
43.48494139708837
20
96.886807574674506
10
42.999934285392769
20
96.401756148339814
10
42.582899393768315
20
96.197724462510649
10
42.028869053351087
20
96.107724762050822
10
41.47584775753657
20
96.197724462510649
10
41.058812865912124
20
96.401756148339814
10
40.572796709613797
20
96.886807574674506
0
LWPOLYLINE
5
122
100
AcDbEntity
8
0
100
AcDbPolyline
90
22
70
1
43
0.0
10
-12.944645792541493
20
99.314075503849978
10
-12.527324782409666
20
99.518087160390621
10
-11.973895290857939
20
99.608096875494724
10
-11.420458169479362
20
99.518087160390621
10
-11.003137159347531
20
99.314075503849978
10
-10.51771231463114
20
98.829023839071397
10
-10.313599186375926
20
98.411969701302056
10
-10.223796124191281
20
97.857910699550814
10
-10.313599186375926
20
97.304851970006538
10
-10.51771231463114
20
96.886807574674506
10
-11.003137159347531
20
96.401756148339814
10
-11.420458169479362
20
96.197724462510649
10
-11.973895290857939
20
96.107724762050822
10
-12.527324782409666
20
96.197724462510649
10
-12.944645792541493
20
96.401756148339814
10
-13.430070637257884
20
96.886807574674506
10
-13.634183765513102
20
97.304851970006538
10
-13.723994457524613
20
97.857910699550814
10
-13.634183765513102
20
98.411969701302056
10
-13.430070637257884
20
98.829023839071397
10
-13.32071614373524
20
98.962533115316944
10
-13.078003721377044
20
99.20505894770622
0
LWPOLYLINE
5
123
100
AcDbEntity
8
0
100
AcDbPolyline
90
26
70
1
43
0.0
10
96.364446445350637
20
109.0315981496483
10
96.121934305947633
20
109.27463401356341
10
96.012928877003986
20
109.40814829713106
10
95.807915429178877
20
109.82518192872405
10
95.718909683901487
20
110.3782506729126
10
95.807915429178877
20
110.93229894468784
10
96.012928877003986
20
111.34933353005648
10
96.121934305947633
20
111.48284781362413
10
96.364446445350637
20
111.72537865333558
10
96.497953155810038
20
111.83439520947935
10
96.914968972867328
20
112.03842689530852
10
97.469008850568144
20
112.12843661041261
10
98.022041591122942
20
112.03842689530852
10
98.439065038007101
20
111.83439520947935
10
98.925092639045715
20
111.34933353005648
10
99.129102764638262
20
110.93229894468784
10
99.219108017234817
20
110.3782506729126
10
99.129102764638262
20
109.82518192872405
10
98.925092639045715
20
109.40814829713106
10
98.815581734072367
20
109.27463401356341
10
98.57256793355306
20
109.0315981496483
10
98.439065038007101
20
108.9220765693009
10
98.022041591122942
20
108.71807445051671
10
97.469008850568144
20
108.62806473541261
10
96.914968972867328
20
108.71807445051671
10
96.497953155810038
20
108.9220765693009
0
LWPOLYLINE
5
124
100
AcDbEntity
8
0
100
AcDbPolyline
90
26
70
1
43
0.0
10
-44.176567631289167
20
111.7253786533356
10
-44.043209702453609
20
111.83439520947935
10
-43.625888692321766
20
112.03842689530852
10
-43.072451570943187
20
112.12843661041261
10
-42.519022079391476
20
112.03842689530852
10
-42.101685809605911
20
111.83439520947935
10
-41.616268594716388
20
111.34933353005648
10
-41.41216309628804
20
110.93229894468784
10
-41.322352404276536
20
110.3782506729126
10
-41.41216309628804
20
109.82518192872405
10
-41.616268594716388
20
109.40814829713106
10
-41.725626903152467
20
109.27463401356341
10
-41.968335510597221
20
109.0315981496483
10
-42.101685809605911
20
108.9220765693009
10
-42.519022079391476
20
108.71807445051671
10
-43.072451570943187
20
108.62806473541261
10
-43.625888692321766
20
108.71807445051671
10
-44.043209702453609
20
108.9220765693009
10
-44.176567631289167
20
109.0315981496483
10
-44.419280053647363
20
109.2746340135634
10
-44.52863454717
20
109.40814829713106
10
-44.732747675425202
20
109.82518192872405
10
-44.822550737609859
20
110.3782506729126
10
-44.732747675425202
20
110.93229894468784
10
-44.52863454717
20
111.34933353005648
10
-44.419280053647363
20
111.48284781362413
0
LWPOLYLINE
5
125
100
AcDbEntity
8
0
100
AcDbPolyline
90
28
70
1
43
0.0
10
102.20477753128051
20
116.3758828258574
10
101.96176945313135
20
116.61840317403674
10
101.85226808544158
20
116.75191745760442
10
101.64824651510875
20
117.16895204297305
10
101.55824126251221
20
117.72302129781247
10
101.64824651510875
20
118.27608908822538
10
101.85226808544158
20
118.69313511890175
10
101.96176945313135
20
118.82664367981555
10
102.20477753128051
20
119.06966380643249
10
102.33828424173991
20
119.17917537213566
10
102.75531913336437
20
119.3832070579648
10
103.30834042917887
20
119.47320723531247
10
103.86237267705282
20
119.3832070579648
10
104.27938467919668
20
119.17917537213566
10
104.41290283439636
20
119.06966380643249
10
104.65541688125612
20
118.82664367981555
10
104.76441277291616
20
118.69313511890175
10
104.96843434324902
20
118.27608908822538
10
105.05843959584553
20
117.72302129781247
10
104.96843434324902
20
117.16895204297305
10
104.76441277291616
20
116.75191745760442
10
104.65541688125612
20
116.61840317403674
10
104.41290283439636
20
116.3758828258574
10
104.27938467919668
20
116.26687676124574
10
103.86237267705282
20
116.06284507541658
10
103.30834042917887
20
115.97283536031247
10
102.75531913336437
20
116.06284507541658
10
102.33828424173991
20
116.26687676124574
0
LWPOLYLINE
5
126
100
AcDbEntity
8
0
100
AcDbPolyline
90
22
70
1
43
0.0
10
-12.620927498372396
20
116.06284507541658
10
-13.038248508504227
20
116.26687676124574
10
-13.523680983047486
20
116.75191745760442
10
-13.727794111302687
20
117.16895204297305
10
-13.817597173487343
20
117.72302129781247
10
-13.727794111302687
20
118.27608908822538
10
-13.523680983047486
20
118.69313511890175
10
-13.414322674611409
20
118.82664367981555
10
-13.171606437339776
20
119.06966380643249
10
-13.038248508504227
20
119.17917537213566
10
-12.620927498372396
20
119.3832070579648
10
-12.067498006820671
20
119.47320723531247
10
-11.51406851526896
20
119.3832070579648
10
-11.096739875310265
20
119.17917537213566
10
-10.611315030593873
20
118.69313511890175
10
-10.407201902338656
20
118.27608908822538
10
-10.317398840154013
20
117.72302129781247
10
-10.407201902338656
20
117.16895204297305
10
-10.611315030593873
20
116.75191745760442
10
-11.096739875310265
20
116.26687676124574
10
-11.51406851526896
20
116.06284507541658
10
-12.067498006820671
20
115.97283536031247
0
LWPOLYLINE
5
127
100
AcDbEntity
8
0
100
AcDbPolyline
90
26
70
1
43
0.0
10
167.28896316785179
20
116.26687676124574
10
167.15595621105194
20
116.3758828258574
10
166.91344216419222
20
116.61840317403674
10
166.80393507413226
20
116.75191745760442
10
166.59991350379943
20
117.16895204297305
10
166.50991969594318
20
117.72302129781247
10
166.59991350379943
20
118.27608908822538
10
166.80393507413226
20
118.69313511890175
10
166.91344216419219
20
118.82664367981555
10
167.15595621105194
20
119.06966380643249
10
167.28896316785179
20
119.17917537213566
10
167.70698612205504
20
119.3832070579648
10
168.26001886260985
20
119.47320723531247
10
168.81305923299152
20
119.3832070579648
10
169.23108981702168
20
119.17917537213566
10
169.71609502126057
20
118.69313511890175
10
169.92011659159343
20
118.27608908822538
10
170.01011802927653
20
117.72302129781247
10
169.92011659159343
20
117.16895204297305
10
169.71609502126057
20
116.75191745760442
10
169.60709149977365
20
116.61840317403674
10
169.36458889765419
20
116.3758828258574
10
169.23108981702168
20
116.26687676124574
10
168.81305923299152
20
116.06284507541658
10
168.26001886260985
20
115.97283536031247
10
167.70698612205504
20
116.06284507541658
0
LWPOLYLINE
5
128
100
AcDbEntity
8
0
100
AcDbPolyline
90
28
70
1
43
0.0
10
15.393359015108752
20
120.94535421963931
10
15.189348889516197
20
120.52831963427067
10
14.704320795796718
20
120.0432770303607
10
14.28729734891256
20
119.83924534453153
10
13.796268396364852
20
119.75924836614134
10
13.796268396364852
20
119.74923562942743
10
-1.8676173729960088
20
119.74923562942743
10
-1.8676173729960086
20
119.75424676666262
10
-1.8977208548863658
20
119.74923562942743
10
-2.4511541613515107
20
119.83924534453153
10
-2.8684751714833538
20
120.0432770303607
10
-3.353900016199745
20
120.52831963427067
10
-3.5580131444549465
20
120.94535421963931
10
-3.6478162066396043
20
121.49942156692745
10
-3.5580131444549465
20
122.05249126489164
10
-3.353900016199745
20
122.47053494489194
10
-2.8684751714833538
20
122.95557754880191
10
-2.4511541613515107
20
123.15960923463108
10
-1.8977208548863658
20
123.24960750442743
10
-1.8676173729960086
20
123.24460781249999
10
-1.8676173729960086
20
123.24960750442743
10
13.796268396364852
20
123.24960750442743
10
13.796268396364852
20
123.23960812057258
10
14.28729734891256
20
123.15960923463108
10
14.704320795796718
20
122.95557754880191
10
15.189348889516197
20
122.47053494489194
10
15.393359015108752
20
122.05249126489164
10
15.483364267705284
20
121.49942156692745
0
LWPOLYLINE
5
129
100
AcDbEntity
8
0
100
AcDbPolyline
90
22
70
1
43
0.0
10
166.50991969594318
20
230.26598739166261
10
166.59991350379943
20
230.82003184833528
10
166.80393507413226
20
231.23706834125522
10
166.91344216419222
20
231.37058167104723
10
167.15595621105194
20
231.61311537208562
10
167.28896316785179
20
231.72213574333193
10
167.70698612205504
20
231.92616742916107
10
168.26001886260985
20
232.0161733291626
10
168.81305923299152
20
231.92616742916107
10
169.23108981702168
20
231.72213574333193
10
169.71609502126057
20
231.23706834125522
10
169.92011659159343
20
230.82003184833528
10
170.01011802927653
20
230.26598739166261
10
169.92011659159343
20
229.71291960124972
10
169.71609502126057
20
229.2958831083298
10
169.23108981702168
20
228.80980851917269
10
168.81305923299152
20
228.60580735416414
10
168.26001886260985
20
228.51580145416261
10
167.70698612205504
20
228.60580735416414
10
167.28896316785179
20
228.80980851917269
10
166.80393507413226
20
229.2958831083298
10
166.59991350379943
20
229.71291960124972
0
LWPOLYLINE
5
130
100
AcDbEntity
8
0
100
AcDbPolyline
90
22
70
1
43
0.0
10
25.900454627596545
20
231.37058167104723
10
26.143468428115852
20
231.61311537208562
10
26.276975138575239
20
231.72213574333193
10
26.693998585459401
20
231.92616742916107
10
27.247031326014202
20
232.0161733291626
10
27.801063573888143
20
231.92616742916107
10
28.218087020772305
20
231.72213574333193
10
28.70311511449178
20
231.23706834125522
10
28.908124747403466
20
230.82003184833528
10
28.997130492680867
20
230.26598739166261
10
28.908124747403466
20
229.71291960124972
10
28.70311511449178
20
229.2958831083298
10
28.218087020772305
20
228.80980851917269
10
27.801063573888143
20
228.60580735416414
10
27.247031326014202
20
228.51580145416261
10
26.693998585459401
20
228.60580735416414
10
26.276975138575239
20
228.80980851917269
10
25.790947537536624
20
229.2958831083298
10
25.586937411944071
20
229.71291960124972
10
25.496932159347541
20
230.26598739166261
10
25.586937411944071
20
230.82003184833528
10
25.790947537536624
20
231.23706834125522
0
LWPOLYLINE
5
131
100
AcDbEntity
8
0
100
AcDbPolyline
90
24
70
1
43
0.0
10
-37.140818161849964
20
231.88514744625095
10
-36.723497151718135
20
231.68111576042179
10
-36.238163864924104
20
231.19607887916567
10
-36.034058366495756
20
230.77904238624572
10
-35.944148486735017
20
230.22496740875243
10
-36.034058366495756
20
229.67189961833952
10
-36.238163864924104
20
229.25486312541963
10
-36.347472579485569
20
229.12134979562757
10
-36.590139222882584
20
228.87832776145933
10
-36.723497151718135
20
228.76881905708316
10
-37.140818161849964
20
228.564787371254
10
-37.694247653401689
20
228.47478147125244
10
-38.2476771449534
20
228.564787371254
10
-38.665104972661325
20
228.76881905708316
10
-38.798462901496876
20
228.87832776145939
10
-39.041125729980457
20
229.12134979562757
10
-39.150430629628488
20
229.25486312541963
10
-39.354543757883704
20
229.67189961833952
10
-39.444346820068347
20
230.22496740875243
10
-39.354543757883704
20
230.77904238624572
10
-39.150430629628488
20
231.19607887916567
10
-38.665104972661325
20
231.68111576042179
10
-38.2476771449534
20
231.88514744625095
10
-37.694247653401689
20
231.97515334625245
0
LWPOLYLINE
5
132
100
AcDbEntity
8
0
100
AcDbPolyline
90
20
70
1
43
0.0
10
-42.403712506001781
20
239.27594728374484
10
-41.986292308120731
20
239.07191559791568
10
-41.500966651153561
20
238.58587152957915
10
-41.296853522898346
20
238.16880451583864
10
-41.20705046071371
20
237.61576724624635
10
-41.296853522898346
20
237.06169226875306
10
-41.500966651153561
20
236.64465577583314
10
-41.986292308120731
20
236.15961889457705
10
-42.403712506001781
20
235.95558720874789
10
-42.95714962738036
20
235.86558130874636
10
-43.510579118932085
20
235.95558720874789
10
-43.927915388717651
20
236.15961889457705
10
-44.413233415857945
20
236.64465577583314
10
-44.617438102035521
20
237.06169226875306
10
-44.707248794047032
20
237.61576724624635
10
-44.617438102035521
20
238.16880451583864
10
-44.413233415857945
20
238.58587152957915
10
-43.927915388717651
20
239.07191559791568
10
-43.510579118932085
20
239.27594728374484
10
-42.95714962738036
20
239.36595318374634
0
LWPOLYLINE
5
133
100
AcDbEntity
8
0
100
AcDbPolyline
90
24
70
1
43
0.0
10
127.92723572603863
20
231.57211064958574
10
128.06075006632489
20
231.68111576042179
10
128.47878065035502
20
231.88514744625095
10
129.0317981312561
20
231.97515334625245
10
129.58482324198405
20
231.88514744625095
10
130.00284619618733
20
231.68111576042179
10
130.48787428990681
20
231.19607887916567
10
130.69189586023964
20
230.77904238624572
10
130.7818972979228
20
230.22496740875243
10
130.69189586023964
20
229.67189961833952
10
130.48787428990681
20
229.25486312541963
10
130.00284619618733
20
228.76881905708316
10
129.58482324198405
20
228.564787371254
10
129.0317981312561
20
228.47478147125244
10
128.47878065035502
20
228.564787371254
10
128.06075006632489
20
228.76881905708316
10
127.92723572603862
20
228.87832776145933
10
127.68472167917886
20
229.12134979562757
10
127.57572197260538
20
229.25486312541963
10
127.37170040227255
20
229.67189961833952
10
127.28169896458944
20
230.22496740875243
10
127.37170040227255
20
230.77904238624572
10
127.57572197260538
20
231.19607887916567
10
127.68472167917886
20
231.32959220895768
0
LWPOLYLINE
5
134
100
AcDbEntity
8
0
100
AcDbPolyline
90
26
70
1
43
0.0
10
101.5682325207901
20
230.22496740875243
10
101.65825684795379
20
230.77904238624572
10
101.86225934371947
20
231.19607887916567
10
101.97176071140925
20
231.32959220895768
10
102.214274758269
20
231.57211064958574
10
102.34728743743898
20
231.68111576042179
10
102.76531039164226
20
231.88514744625095
10
103.31833168745676
20
231.97515334625245
10
103.87137205783844
20
231.88514744625095
10
104.28939501204172
20
231.68111576042179
10
104.77442310576122
20
231.19607887916567
10
104.97843704626719
20
230.77904238624572
10
105.06843085412342
20
230.22496740875243
10
104.97843704626719
20
229.67189961833952
10
104.77442310576122
20
229.25486312541963
10
104.66491220078787
20
229.12134979562757
10
104.42239815392811
20
228.87832776145933
10
104.28939501204172
20
228.76881905708316
10
103.87137205783844
20
228.564787371254
10
103.31833168745676
20
228.47478147125244
10
102.76531039164226
20
228.564787371254
10
102.34728743743898
20
228.76881905708316
10
102.214274758269
20
228.87832776145939
10
101.97176071140925
20
229.12134979562757
10
101.86225934371947
20
229.25486312541963
10
101.65825684795379
20
229.67189961833952
0
LWPOLYLINE
5
135
100
AcDbEntity
8
0
100
AcDbPolyline
90
22
70
1
43
0.0
10
85.512331969547262
20
238.99390438041689
10
85.929345879147846
20
239.19793606624606
10
86.482388156986246
20
239.28794196624756
10
87.036418497403474
20
239.19793606624606
10
87.453441944287619
20
238.99390438041689
10
87.938470038007097
20
238.50786031208037
10
88.1434815783755
20
238.09082381916045
10
88.232487323652919
20
237.53775602874757
10
88.1434815783755
20
236.98368105125428
10
87.938470038007097
20
236.56664455833436
10
87.829458886693317
20
236.43313122854238
10
87.586944839833592
20
236.19010919437412
10
87.453441944287619
20
236.08060048999789
10
87.036418497403474
20
235.87656880416873
10
86.482388156986246
20
235.78757009124757
10
85.929345879147846
20
235.87656880416873
10
85.512331969547262
20
236.08060048999789
10
85.026294831225073
20
236.56664455833436
10
84.822292335459395
20
236.98368105125428
10
84.732288990319574
20
237.53775602874757
10
84.822292335459395
20
238.09082381916045
10
85.026294831225073
20
238.50786031208037
0
LWPOLYLINE
5
136
100
AcDbEntity
8
0
100
AcDbPolyline
90
26
70
1
43
0.0
10
-30.743658496500643
20
251.17320732707981
10
-30.634349781939179
20
251.30672065687179
10
-30.391683138542163
20
251.54923909749985
10
-30.258325209706616
20
251.65824420833587
10
-29.841004199574783
20
251.86227589416504
10
-29.287559448369336
20
251.95228179416659
10
-28.734137586644479
20
251.86227589416504
10
-28.316717388763422
20
251.65824420833587
10
-27.831391731796259
20
251.17320732707981
10
-27.627278603541043
20
250.75614031333927
10
-27.537460281702664
20
250.2020958566666
10
-27.627278603541043
20
249.64902806625366
10
-27.831391731796259
20
249.2309843862534
10
-27.94069663144429
20
249.09797465000153
10
-28.183359459927875
20
248.8554562093735
10
-28.316717388763422
20
248.74594750499725
10
-28.734137586644479
20
248.54191581916808
10
-29.287559448369336
20
248.45190991916655
10
-29.841004199574783
20
248.54191581916808
10
-30.258325209706616
20
248.74594750499725
10
-30.391683138542163
20
248.8554562093735
10
-30.634349781939182
20
249.09797465000153
10
-30.743658496500643
20
249.2309843862534
10
-30.947863182678219
20
249.64902806625366
10
-31.037658615036008
20
250.2020958566666
10
-30.947863182678219
20
250.75614031333927
0
ENDSEC
0
SECTION
2
OBJECTS
0
DICTIONARY
5
C
100
AcDbDictionary
3
ACAD_GROUP
350
D
3
ACAD_MLINESTYLE
350
17
0
DICTIONARY
5
D
100
AcDbDictionary
0
DICTIONARY
5
1A
330
C
100
AcDbDictionary
0
DICTIONARY
5
17
100
AcDbDictionary
0
ENDSEC
0
EOF
