0
SECTION
2
HEADER
9
$INSUNITS
70
4
9
$ACADVER
1
AC1014
9
$HANDSEED
5
FFFF
0
ENDSEC
0
SECTION
2
TABLES
0
TABLE
2
VPORT
5
8
100
AcDbSymbolTable
0
ENDTAB
0
TABLE
2
LTYPE
5
5
100
AcDbSymbolTable
0
LTYPE
5
14
100
AcDbSymbolTableRecord
100
AcDbLinetypeTableRecord
2
BYBLOCK
70
0
0
LTYPE
5
15
100
AcDbSymbolTableRecord
100
AcDbLinetypeTableRecord
2
BYLAYER
70
0
0
LTYPE
5
16
100
AcDbSymbolTableRecord
100
AcDbLinetypeTableRecord
2
DASHED
70
0
3
Dashed __ __ __ __ __ __ __ __ __ __ __ __ __ _
72
65
73
2
40
0.75
49
0.5
74
0
49
-0.25
74
0
0
ENDTAB
0
TABLE
2
LAYER
5
2
100
AcDbSymbolTable
70
2
0
LAYER
5
50
100
AcDbSymbolTableRecord
100
AcDbLayerTableRecord
2
0
70
0
62
7
6
CONTINUOUS
0
ENDTAB
0
TABLE
2
STYLE
5
3
100
AcDbSymbolTable
70
1
0
STYLE
5
11
100
AcDbSymbolTableRecord
100
AcDbTextStyleTableRecord
2
STANDARD
70
0
0
ENDTAB
0
TABLE
2
VIEW
5
6
100
AcDbSymbolTable
70
0
0
ENDTAB
0
TABLE
2
UCS
5
7
100
AcDbSymbolTable
70
0
0
ENDTAB
0
TABLE
2
APPID
5
9
100
AcDbSymbolTable
70
2
0
APPID
5
12
100
AcDbSymbolTableRecord
100
AcDbRegAppTableRecord
2
ACAD
70
0
0
ENDTAB
0
TABLE
2
DIMSTYLE
5
A
100
AcDbSymbolTable
70
1
0
ENDTAB
0
TABLE
2
BLOCK_RECORD
5
1
100
AcDbSymbolTable
70
1
0
BLOCK_RECORD
5
1F
100
AcDbSymbolTableRecord
100
AcDbBlockTableRecord
2
*MODEL_SPACE
0
BLOCK_RECORD
5
1B
100
AcDbSymbolTableRecord
100
AcDbBlockTableRecord
2
*PAPER_SPACE
0
ENDTAB
0
ENDSEC
0
SECTION
2
BLOCKS
0
BLOCK
5
20
100
AcDbEntity
100
AcDbBlockBegin
2
*MODEL_SPACE
0
ENDBLK
5
21
100
AcDbEntity
100
AcDbBlockEnd
0
BLOCK
5
1C
100
AcDbEntity
100
AcDbBlockBegin
2
*PAPER_SPACE
0
ENDBLK
5
1D
100
AcDbEntity
100
AcDbBlockEnd
0
ENDSEC
0
SECTION
2
ENTITIES
0
LWPOLYLINE
5
100
100
AcDbEntity
8
0
100
AcDbPolyline
90
6
70
1
43
0.0
10
316.00002328564932
20
316.99149999999997
10
263.00852194810739
20
316.99150000000009
42
-0.99968533376977886
10
208.99152462319125
20
316.99150000000003
10
156.00002328564932
20
316.99149999999997
10
156.00002328564932
20
174.00000000000003
10
316.00002328564932
20
174.00000000000003
0
LWPOLYLINE
5
101
100
AcDbEntity
8
0
100
AcDbPolyline
90
24
70
1
43
0.0
10
292.98202363660147
20
201.73100280761719
10
293.20002404858877
20
201.46399688720706
10
293.40502397229488
20
201.0469970703125
10
293.49402276685049
20
200.49400329589844
10
293.40502397229488
20
199.94000244140625
10
293.20002404858877
20
199.52300262451175
10
292.98202363660147
20
199.25599670410156
10
292.71502343823721
20
199.03800201416018
10
292.29802362134268
20
198.8330001831055
10
291.74402276685049
20
198.74400329589847
10
291.19102327039053
20
198.8330001831055
10
290.774023453496
20
199.03800201416018
10
290.50702325513174
20
199.25599670410156
10
290.28802339246084
20
199.52300262451175
10
290.08402291943838
20
199.94000244140625
10
289.99402276685049
20
200.49400329589844
10
290.08402291943838
20
201.0469970703125
10
290.28802339246084
20
201.46399688720706
10
290.50702325513174
20
201.73100280761719
10
290.774023453496
20
201.94999694824219
10
291.19102327039053
20
202.15399932861331
10
291.74402276685049
20
202.24400329589844
10
292.29802362134268
20
202.15399932861331
10
292.71502343823721
20
201.94999694824219
0
LWPOLYLINE
5
102
100
AcDbEntity
8
0
100
AcDbPolyline
90
24
70
1
43
0.0
10
305.98302308728506
20
192.64399719238284
10
306.20202294995596
20
192.91000366210938
10
306.46802369763662
20
193.1289978027344
10
306.88602296521475
20
193.3330001831055
10
307.43902341534908
20
193.42299652099612
10
307.99202291180899
20
193.3330001831055
10
308.41002313306143
20
193.1289978027344
10
308.67702333142569
20
192.91000366210938
10
308.89502326657583
20
192.64399719238284
10
309.09902326276114
20
192.22599792480469
10
309.18902341534903
20
191.67299652099612
10
309.09902326276114
20
191.11900329589844
10
308.89502326657583
20
190.70200347900393
10
308.67702333142569
20
190.43499755859375
10
308.41002313306143
20
190.21700286865237
10
307.99202291180899
20
190.01300048828125
10
307.43902341534908
20
189.92299652099609
10
306.88602296521475
20
190.01300048828125
10
306.46802369763662
20
190.21700286865237
10
306.20202294995596
20
190.43499755859375
10
305.98302308728506
20
190.70200347900393
10
305.77902356793692
20
191.11900329589844
10
305.68902341534903
20
191.67299652099612
10
305.77902356793692
20
192.22599792480469
0
LWPOLYLINE
5
103
100
AcDbEntity
8
0
100
AcDbPolyline
90
24
70
1
43
0.0
10
290.97202340771963
20
183.79199981689453
10
291.38902322461422
20
183.99600219726562
10
291.94302407910635
20
184.08599853515625
10
292.49602357556631
20
183.99600219726562
10
292.91402284314444
20
183.79199981689453
10
293.18002359082516
20
183.572998046875
10
293.399023453496
20
183.30699920654297
10
293.60302392651846
20
182.88899993896484
10
293.69302407910641
20
182.33599853515625
10
293.60302392651846
20
181.78299713134766
10
293.399023453496
20
181.36499786376956
10
293.18002359082516
20
181.09899902343753
10
292.91402284314444
20
180.879997253418
10
292.49602357556631
20
180.67600250244141
10
291.94302407910635
20
180.58599853515628
10
291.38902322461422
20
180.67600250244141
10
290.97202340771963
20
180.879997253418
10
290.70502320935537
20
181.09899902343753
10
290.48702279736807
20
181.36499786376956
10
290.28302423169424
20
181.78299713134766
10
290.19302407910635
20
182.33599853515625
10
290.28302423169424
20
182.88899993896484
10
290.48702279736807
20
183.30699920654297
10
290.70502320935537
20
183.572998046875
0
LWPOLYLINE
5
104
100
AcDbEntity
8
0
100
AcDbPolyline
90
24
70
1
43
0.0
10
179.48902169873526
20
202.27899932861331
10
180.04203073193838
20
202.36900329589844
10
180.59502450635247
20
202.27899932861331
10
181.01302377393057
20
202.07499694824222
10
181.27903024365713
20
201.85700225830078
10
181.49802438428213
20
201.58999633789065
10
181.70201913525869
20
201.17299652099609
10
181.79203073193838
20
200.61900329589847
10
181.70201913525869
20
200.06600189208984
10
181.49802438428213
20
199.64800262451175
10
181.27903024365713
20
199.38200378417972
10
181.01302377393057
20
199.16300201416018
10
180.59502450635247
20
198.95899963378909
10
180.04203073193838
20
198.86900329589847
10
179.48902169873526
20
198.95899963378909
10
179.07102243115713
20
199.16300201416018
10
178.8050159614306
20
199.38200378417972
10
178.58602182080557
20
199.64800262451175
10
178.38202706982901
20
200.06600189208984
10
178.29203073193838
20
200.61900329589847
10
178.38202706982901
20
201.17299652099609
10
178.58602182080557
20
201.58999633789065
10
178.8050159614306
20
201.85700225830078
10
179.07102243115713
20
202.07499694824222
0
LWPOLYLINE
5
105
100
AcDbEntity
8
0
100
AcDbPolyline
90
24
70
1
43
0.0
10
165.09902230908682
20
192.94300079345703
10
165.51602975537588
20
192.73799896240234
10
165.78302804639151
20
192.51999664306641
10
166.00202218701651
20
192.25299835205078
10
166.20601693799307
20
191.83599853515628
10
166.29602853467276
20
191.28199768066406
10
166.20601693799307
20
190.72899627685547
10
166.00202218701651
20
190.31199645996094
10
165.78302804639151
20
190.04499816894534
10
165.51602975537588
20
189.82599639892581
10
165.09902230908682
20
189.62200164794922
10
164.54602853467276
20
189.53199768066409
10
163.99202768018057
20
189.62200164794922
10
163.57502023389151
20
189.82599639892581
10
163.30802194287588
20
190.04499816894534
10
163.09001962353994
20
190.31199645996094
10
162.88602487256338
20
190.72899627685547
10
162.79602853467279
20
191.28199768066406
10
162.88602487256338
20
191.83599853515628
10
163.09001962353994
20
192.25299835205078
10
163.30802194287588
20
192.51999664306641
10
163.57502023389151
20
192.73799896240234
10
163.99202768018057
20
192.94300079345703
10
164.54602853467276
20
193.03199768066406
0
LWPOLYLINE
5
106
100
AcDbEntity
8
0
100
AcDbPolyline
90
24
70
1
43
0.0
10
179.00302926709463
20
183.69899749755859
10
179.27002755811029
20
183.91799926757812
10
179.68701974561026
20
184.12200164794922
10
180.24002877881341
20
184.21199798583984
10
180.79402963330557
20
184.12200164794922
10
181.2110218208056
20
183.91799926757812
10
181.47802011182119
20
183.69899749755859
10
181.69702951123526
20
183.43199920654297
10
181.90102426221185
20
183.01499938964844
10
181.99002877881338
20
182.46199798583984
10
181.90102426221185
20
181.90799713134766
10
181.69702951123526
20
181.49099731445315
10
181.47802011182119
20
181.2239990234375
10
181.2110218208056
20
181.00599670410159
10
180.79402963330557
20
180.80100250244141
10
180.24002877881341
20
180.71199798583987
10
179.68701974561026
20
180.80100250244141
10
179.27002755811029
20
181.00599670410159
10
179.00302926709463
20
181.2239990234375
10
178.78401986768057
20
181.49099731445315
10
178.58002511670404
20
181.90799713134766
10
178.49002877881338
20
182.46199798583984
10
178.58002511670404
20
183.01499938964844
10
178.78401986768057
20
183.43199920654297
0
LWPOLYLINE
5
107
100
AcDbEntity
8
0
100
AcDbPolyline
90
24
70
1
43
0.0
10
288.19702378918936
20
311.8390007019043
10
287.73302308728506
20
311.87100028991699
10
287.20902291943838
20
312.06999969482422
10
286.77502290417965
20
312.42499923706055
10
286.51502267529781
20
312.80999946594238
10
286.39402238538077
20
313.13299942016602
10
286.33802262952139
20
313.47299957275391
10
286.36902276685049
20
313.9370002746582
10
286.56802407910635
20
314.46099853515625
10
286.92302362134274
20
314.89500045776367
10
287.30802385022452
20
315.15499877929688
10
287.63102380444815
20
315.2760009765625
10
287.97102395703604
20
315.33200073242188
10
288.4350227515917
20
315.29999923706055
10
288.95902291943844
20
315.10100173950195
10
289.39302293469717
20
314.74700164794922
10
289.65302316357901
20
314.36100006103516
10
289.77402345349606
20
314.03900146484375
10
289.83002320935543
20
313.69800186157227
10
289.79802362134268
20
313.23500061035156
10
289.59902421643551
20
312.71100044250488
10
289.24502412488272
20
312.27599906921387
10
288.86002389600088
20
312.01700019836426
10
288.53702394177725
20
311.89500045776367
0
LWPOLYLINE
5
108
100
AcDbEntity
8
0
100
AcDbPolyline
90
24
70
1
43
0.0
10
182.87603036572744
20
315.13100051879883
10
183.26102487256338
20
315.39099884033203
10
183.58402291943838
20
315.51200103759766
10
183.92401925732901
20
315.56800079345703
10
184.38802377393057
20
315.5359992980957
10
184.91202584912588
20
315.33700180053711
10
185.34601632764151
20
314.98300170898438
10
185.60602609326651
20
314.59700012207031
10
185.72702829053213
20
314.27500152587891
10
185.78302804639151
20
313.93399810791016
10
185.75103036572744
20
313.47100067138672
10
185.55202523877432
20
312.94700050354004
10
185.19802133252432
20
312.51199913024902
10
184.81302682568838
20
312.25300025939941
10
184.49002877881338
20
312.13100051879883
10
184.15001718213372
20
312.07500076293945
10
183.68602792432119
20
312.10700035095215
10
183.16202584912588
20
312.30599975585938
10
182.72802011182119
20
312.6609992980957
10
182.46802560498526
20
313.04599952697754
10
182.34702340771963
20
313.36899948120117
10
182.29102365186026
20
313.70899963378906
10
182.32202951123526
20
314.17300033569336
10
182.52101937939932
20
314.69699859619141
0
LWPOLYLINE
5
109
100
AcDbEntity
8
0
100
AcDbPolyline
90
24
70
1
43
0.0
10
307.74102346112545
20
314.69900131225586
10
307.86302320172598
20
314.37699890136719
10
307.91902295758536
20
314.0359992980957
10
307.88702336957266
20
313.57300186157227
10
307.68802301099117
20
313.04899978637695
10
307.33402291943838
20
312.61400032043457
10
306.94802323987295
20
312.35499954223633
10
306.62502328564932
20
312.23299980163574
10
306.28502313306143
20
312.17700004577637
10
305.82202283551504
20
312.20899963378906
10
305.29802362134268
20
312.40800094604492
10
304.86302320172598
20
312.76300048828125
10
304.60402337720205
20
313.14800071716309
10
304.48202363660147
20
313.47100067138672
10
304.42602292706783
20
313.81100082397461
10
304.45802346875485
20
314.27399826049805
10
304.65702287366202
20
314.79899978637695
10
305.01102296521475
20
315.23300170898438
10
305.3970235984545
20
315.49200057983398
10
305.72002355267813
20
315.61399841308594
10
306.06002370526602
20
315.66999816894531
10
306.52302304913809
20
315.63800048828125
10
307.04802362134268
20
315.43899917602539
10
307.48202363660147
20
315.08499908447266
0
LWPOLYLINE
5
110
100
AcDbEntity
8
0
100
AcDbPolyline
90
24
70
1
43
0.0
10
165.59001962353994
20
315.32400131225586
10
165.93001596143057
20
315.38000106811523
10
166.39402047803213
20
315.34799957275391
10
166.91802255322744
20
315.14899826049805
10
167.35202829053213
20
314.79499816894531
10
167.61202279736807
20
314.40900039672852
10
167.73302499463369
20
314.08700180053711
10
167.78902475049307
20
313.74599838256836
10
167.75702706982901
20
313.28300094604492
10
167.55802194287588
20
312.75900077819824
10
167.20401803662588
20
312.32399940490723
10
166.81902352978994
20
312.06500053405762
10
166.49602548291494
20
311.94300079345703
10
166.15602914502432
20
311.88699913024902
10
165.69202462842276
20
311.91900062561035
10
165.16802255322744
20
312.11800003051758
10
164.73401681592276
20
312.47299957275391
10
164.47402230908682
20
312.85799980163574
10
164.35302011182119
20
313.18099975585938
10
164.29702035596182
20
313.52099990844727
10
164.32802621533682
20
313.98500061035156
10
164.52701608350088
20
314.50899887084961
10
164.88202706982901
20
314.94300079345703
10
165.26702157666494
20
315.20199966430664
0
CIRCLE
5
111
100
AcDbEntity
8
0
100
AcDbCircle
10
159.63999923706055
20
313.00000000000068
30
4.163336342344337e-14
40
1.5684999999999973
210
7.036161272890147e-16
220
-2.2204460492503136e-16
230
1
0
CIRCLE
5
112
100
AcDbEntity
8
0
100
AcDbCircle
10
159.63999923706055
20
303.94000000000085
30
4.163336342344337e-14
40
1.5684999999999971
210
7.03616127289015e-16
220
-2.2204460492503136e-16
230
1
0
CIRCLE
5
113
100
AcDbEntity
8
0
100
AcDbCircle
10
159.63999923706055
20
295.94000000000096
30
4.163336342344337e-14
40
1.5684999999999973
210
7.036161272890149e-16
220
-2.2204460492503136e-16
230
1
0
CIRCLE
5
114
100
AcDbEntity
8
0
100
AcDbCircle
10
312.23999961853031
20
303.94000000000085
30
5.6066262743570405e-14
40
1.5684999999999971
210
7.03616127289015e-16
220
-2.2204460492503136e-16
230
1
0
CIRCLE
5
115
100
AcDbEntity
8
0
100
AcDbCircle
10
312.23999961853031
20
295.94000000000096
30
5.2180482157382357e-14
40
1.5684999999999973
210
7.036161272890149e-16
220
-2.2204460492503136e-16
230
1
0
CIRCLE
5
116
100
AcDbEntity
8
0
100
AcDbCircle
10
312.23999961853031
20
313.00000000000068
30
5.6066262743570405e-14
40
1.5684999999999973
210
7.036161272890147e-16
220
-2.2204460492503136e-16
230
1
0
CIRCLE
5
117
100
AcDbEntity
8
0
100
AcDbCircle
10
253.06499786376958
20
266.93999999999994
30
4.3298697960381105e-14
40
1.7584999999999975
210
6.2759277546364491e-16
220
-2.2204460492503136e-16
230
1
0
CIRCLE
5
118
100
AcDbEntity
8
0
100
AcDbCircle
10
218.17499786376956
20
266.93999999999994
30
3.9968028886505635e-14
40
1.7584999999999975
210
6.2759277546364491e-16
220
-2.2204460492503136e-16
230
1
0
CIRCLE
5
119
100
AcDbEntity
8
0
100
AcDbCircle
10
236.00002328564932
20
259.67225516071289
30
5.0515147620444623e-14
40
12.0085
210
0
220
-2.2204460492503128e-16
230
1
0
ENDSEC
0
SECTION
2
OBJECTS
0
DICTIONARY
5
C
100
AcDbDictionary
3
ACAD_GROUP
350
D
3
ACAD_MLINESTYLE
350
17
0
DICTIONARY
5
D
100
AcDbDictionary
0
DICTIONARY
5
1A
330
C
100
AcDbDictionary
0
DICTIONARY
5
17
100
AcDbDictionary
0
ENDSEC
0
EOF
