0
SECTION
2
HEADER
9
$INSUNITS
70
4
9
$ACADVER
1
AC1014
9
$HANDSEED
5
FFFF
0
ENDSEC
0
SECTION
2
TABLES
0
TABLE
2
VPORT
5
8
100
AcDbSymbolTable
0
ENDTAB
0
TABLE
2
LTYPE
5
5
100
AcDbSymbolTable
0
LTYPE
5
14
100
AcDbSymbolTableRecord
100
AcDbLinetypeTableRecord
2
BYBLOCK
70
0
0
LTYPE
5
15
100
AcDbSymbolTableRecord
100
AcDbLinetypeTableRecord
2
BYLAYER
70
0
0
LTYPE
5
16
100
AcDbSymbolTableRecord
100
AcDbLinetypeTableRecord
2
DASHED
70
0
3
Dashed __ __ __ __ __ __ __ __ __ __ __ __ __ _
72
65
73
2
40
0.75
49
0.5
74
0
49
-0.25
74
0
0
ENDTAB
0
TABLE
2
LAYER
5
2
100
AcDbSymbolTable
70
2
0
LAYER
5
50
100
AcDbSymbolTableRecord
100
AcDbLayerTableRecord
2
0
70
0
62
7
6
CONTINUOUS
0
ENDTAB
0
TABLE
2
STYLE
5
3
100
AcDbSymbolTable
70
1
0
STYLE
5
11
100
AcDbSymbolTableRecord
100
AcDbTextStyleTableRecord
2
STANDARD
70
0
0
ENDTAB
0
TABLE
2
VIEW
5
6
100
AcDbSymbolTable
70
0
0
ENDTAB
0
TABLE
2
UCS
5
7
100
AcDbSymbolTable
70
0
0
ENDTAB
0
TABLE
2
APPID
5
9
100
AcDbSymbolTable
70
2
0
APPID
5
12
100
AcDbSymbolTableRecord
100
AcDbRegAppTableRecord
2
ACAD
70
0
0
ENDTAB
0
TABLE
2
DIMSTYLE
5
A
100
AcDbSymbolTable
70
1
0
ENDTAB
0
TABLE
2
BLOCK_RECORD
5
1
100
AcDbSymbolTable
70
1
0
BLOCK_RECORD
5
1F
100
AcDbSymbolTableRecord
100
AcDbBlockTableRecord
2
*MODEL_SPACE
0
BLOCK_RECORD
5
1B
100
AcDbSymbolTableRecord
100
AcDbBlockTableRecord
2
*PAPER_SPACE
0
ENDTAB
0
ENDSEC
0
SECTION
2
BLOCKS
0
BLOCK
5
20
100
AcDbEntity
100
AcDbBlockBegin
2
*MODEL_SPACE
0
ENDBLK
5
21
100
AcDbEntity
100
AcDbBlockEnd
0
BLOCK
5
1C
100
AcDbEntity
100
AcDbBlockBegin
2
*PAPER_SPACE
0
ENDBLK
5
1D
100
AcDbEntity
100
AcDbBlockEnd
0
ENDSEC
0
SECTION
2
ENTITIES
0
LWPOLYLINE
5
100
100
AcDbEntity
8
0
100
AcDbPolyline
90
24
70
1
43
0.0
10
7.1449999809265137
20
19.163000106811523
10
7.1840000152587891
20
18.820999145507812
10
7.1279997825622567
20
18.360000610351562
10
6.9019999504089355
20
17.846000671386719
10
6.5250000953674325
20
17.430999755859375
10
6.1269998550415039
20
17.191999435424805
10
5.7979998588562012
20
17.086999893188477
10
5.4559998512268066
20
17.048999786376953
10
4.9939999580383301
20
17.104999542236328
10
4.4809999465942383
20
17.330999374389648
10
4.0659999847412109
20
17.707000732421875
10
3.8269999027252197
20
18.106000900268555
10
3.7219998836517338
20
18.434000015258789
10
3.6840000152587891
20
18.777000427246094
10
3.7400000095367436
20
19.238000869750977
10
3.9660000801086426
20
19.750999450683594
10
4.3420000076293945
20
20.166999816894531
10
4.7410001754760742
20
20.406000137329102
10
5.0689997673034668
20
20.51099967956543
10
5.4120001792907715
20
20.548999786376957
10
5.873000144958497
20
20.493000030517582
10
6.3860001564025879
20
20.267000198364258
10
6.8020000457763672
20
19.889999389648438
10
7.0409998893737802
20
19.492000579833984
0
LWPOLYLINE
5
101
100
AcDbEntity
8
0
100
AcDbPolyline
90
4
70
1
43
0.0
10
150
20
160
10
-150
20
160
10
-150
20
0
10
150
20
0
0
LWPOLYLINE
5
102
100
AcDbEntity
8
0
100
AcDbPolyline
90
24
70
1
43
0.0
10
-9.0270004272460938
20
11.149000167846681
10
-8.7880001068115234
20
10.75
10
-8.6829996109008789
20
10.421999931335451
10
-8.6450004577636719
20
10.079000473022461
10
-8.7010002136230469
20
9.6180000305175781
10
-8.925999641418457
20
9.1049995422363281
10
-9.3030004501342773
20
8.689000129699707
10
-9.7010002136230469
20
8.4499998092651367
10
-10.029999732971191
20
8.3459997177124023
10
-10.373000144958498
20
8.3070001602172852
10
-10.833999633789062
20
8.3629999160766602
10
-11.347000122070312
20
8.5889997482299805
10
-11.76200008392334
20
8.9659996032714844
10
-12.00100040435791
20
9.3640003204345703
10
-12.105999946594238
20
9.6929998397827148
10
-12.144000053405763
20
10.034999847412109
10
-12.088000297546388
20
10.496999740600586
10
-11.86299991607666
20
11.010000228881836
10
-11.486000061035158
20
11.425000190734863
10
-11.088000297546387
20
11.663999557495117
10
-10.758999824523928
20
11.769000053405762
10
-10.416000366210938
20
11.807000160217285
10
-9.9549999237060547
20
11.75100040435791
10
-9.4420003890991211
20
11.524999618530273
0
LWPOLYLINE
5
103
100
AcDbEntity
8
0
100
AcDbPolyline
90
24
70
1
43
0.0
10
-36.020000457763672
20
18.045000076293945
10
-35.466999053955078
20
18.135000228881836
10
-34.912998199462891
20
18.045000076293945
10
-34.495998382568359
20
17.840999603271484
10
-34.229000091552734
20
17.62299919128418
10
-34.009998321533203
20
17.356000900268555
10
-33.805999755859375
20
16.938999176025391
10
-33.716999053955078
20
16.385000228881836
10
-33.805999755859375
20
15.831999778747559
10
-34.009998321533203
20
15.414999961853029
10
-34.229000091552734
20
15.147999763488771
10
-34.495998382568359
20
14.928999900817871
10
-34.912998199462891
20
14.725000381469728
10
-35.466999053955078
20
14.635000228881836
10
-36.020000457763672
20
14.725000381469728
10
-36.437000274658203
20
14.928999900817871
10
-36.703998565673828
20
15.147999763488771
10
-36.923000335693359
20
15.414999961853029
10
-37.126998901367188
20
15.831999778747559
10
-37.216999053955078
20
16.385000228881836
10
-37.126998901367188
20
16.938999176025391
10
-36.923000335693359
20
17.356000900268555
10
-36.703998565673828
20
17.62299919128418
10
-36.437000274658203
20
17.840999603271484
0
LWPOLYLINE
5
104
100
AcDbEntity
8
0
100
AcDbPolyline
90
24
70
1
43
0.0
10
99.694000244140639
20
25.479000091552738
10
100.24700164794922
20
25.388999938964844
10
100.66400146484376
20
25.184999465942383
10
100.93099975585938
20
24.965999603271488
10
101.15000152587891
20
24.69899940490723
10
101.35399627685547
20
24.281999588012695
10
101.44400024414062
20
23.729000091552734
10
101.35399627685547
20
23.17499923706055
10
101.15000152587891
20
22.757999420166016
10
100.93099975585938
20
22.490999221801758
10
100.66400146484376
20
22.273000717163086
10
100.24700164794922
20
22.069000244140625
10
99.694000244140639
20
21.979000091552734
10
99.139999389648438
20
22.069000244140625
10
98.722999572753906
20
22.273000717163086
10
98.456001281738281
20
22.490999221801758
10
98.237998962402344
20
22.757999420166016
10
98.033996582031264
20
23.17499923706055
10
97.944000244140625
20
23.729000091552734
10
98.033996582031264
20
24.281999588012695
10
98.237998962402344
20
24.69899940490723
10
98.456001281738281
20
24.965999603271488
10
98.722999572753906
20
25.184999465942383
10
99.139999389648438
20
25.388999938964844
0
LWPOLYLINE
5
105
100
AcDbEntity
8
0
100
AcDbPolyline
90
24
70
1
43
0.0
10
106.77100372314455
20
144.88999938964844
10
106.98899841308595
20
144.62300109863281
10
107.19400024414064
20
144.20599365234375
10
107.28299713134767
20
143.65199279785156
10
107.19400024414064
20
143.0989990234375
10
106.98899841308595
20
142.68099975585938
10
106.77100372314455
20
142.41499328613281
10
106.50399780273439
20
142.19599914550781
10
106.08699798583984
20
141.99200439453125
10
105.53299713134766
20
141.90199279785156
10
104.98000335693361
20
141.99200439453125
10
104.56300354003908
20
142.19599914550781
10
104.29599761962891
20
142.41499328613281
10
104.07700347900391
20
142.68099975585938
10
103.87300109863283
20
143.0989990234375
10
103.78299713134766
20
143.65199279785156
10
103.87300109863283
20
144.20599365234375
10
104.07700347900391
20
144.62300109863281
10
104.29599761962891
20
144.88999938964844
10
104.56300354003908
20
145.10800170898438
10
104.98000335693361
20
145.31199645996094
10
105.53299713134766
20
145.40199279785156
10
106.08699798583984
20
145.31199645996094
10
106.50399780273439
20
145.10800170898438
0
LWPOLYLINE
5
106
100
AcDbEntity
8
0
100
AcDbPolyline
90
24
70
1
43
0.0
10
-65.305000305175781
20
24.281999588012695
10
-65.214996337890625
20
23.729000091552734
10
-65.305000305175781
20
23.17499923706055
10
-65.509002685546875
20
22.757999420166016
10
-65.726997375488281
20
22.490999221801758
10
-65.994003295898438
20
22.273000717163086
10
-66.411003112792969
20
22.069000244140625
10
-66.964996337890625
20
21.979000091552734
10
-67.517997741699219
20
22.068000793457031
10
-67.935997009277344
20
22.273000717163086
10
-68.202003479003906
20
22.490999221801758
10
-68.420997619628906
20
22.757999420166016
10
-68.625
20
23.17499923706055
10
-68.714996337890625
20
23.729000091552734
10
-68.625
20
24.281999588012695
10
-68.420997619628906
20
24.69899940490723
10
-68.202003479003906
20
24.965999603271488
10
-67.935997009277344
20
25.184999465942383
10
-67.517997741699219
20
25.388999938964844
10
-66.964996337890625
20
25.479000091552738
10
-66.411003112792969
20
25.388999938964844
10
-65.994003295898438
20
25.184999465942383
10
-65.726997375488281
20
24.965999603271488
10
-65.509002685546875
20
24.69899940490723
0
LWPOLYLINE
5
107
100
AcDbEntity
8
0
100
AcDbPolyline
90
24
70
1
43
0.0
10
92.691001892089844
20
155.20100402832031
10
92.472000122070312
20
154.93400573730469
10
92.206001281738281
20
154.71499633789062
10
91.788002014160156
20
154.51100158691406
10
91.235000610351577
20
154.42100524902344
10
90.680999755859375
20
154.51100158691406
10
90.263999938964844
20
154.71499633789062
10
89.997001647949219
20
154.93400573730469
10
89.778999328613281
20
155.20100402832031
10
89.574996948242202
20
155.61799621582031
10
89.485000610351562
20
156.17100524902344
10
89.574996948242202
20
156.72500610351562
10
89.778999328613281
20
157.14199829101562
10
89.997001647949219
20
157.40899658203125
10
90.263999938964844
20
157.62699890136719
10
90.680999755859375
20
157.83099365234375
10
91.235000610351577
20
157.92100524902344
10
91.788002014160156
20
157.83099365234375
10
92.206001281738281
20
157.62699890136719
10
92.472000122070312
20
157.40899658203125
10
92.691001892089844
20
157.14199829101562
10
92.894996643066406
20
156.72500610351562
10
92.985000610351562
20
156.17100524902344
10
92.894996643066406
20
155.61799621582031
0
LWPOLYLINE
5
108
100
AcDbEntity
8
0
100
AcDbPolyline
90
24
70
1
43
0.0
10
72.192001342773438
20
3.8659999370574956
10
72.280998229980469
20
4.4200000762939453
10
72.485000610351562
20
4.8369998931884766
10
72.704002380371094
20
5.1040000915527353
10
72.971000671386719
20
5.3220000267028809
10
73.38800048828125
20
5.5260000228881836
10
73.942001342773438
20
5.6160001754760742
10
74.495002746582031
20
5.5260000228881836
10
74.912002563476562
20
5.3220000267028809
10
75.179000854492188
20
5.1040000915527353
10
75.398002624511719
20
4.8369998931884766
10
75.601997375488281
20
4.4200000762939453
10
75.692001342773438
20
3.8659999370574956
10
75.601997375488281
20
3.3129999637603764
10
75.398002624511719
20
2.8949999809265137
10
75.179000854492188
20
2.6289999485015869
10
74.912002563476562
20
2.4100000858306885
10
74.495002746582031
20
2.2060000896453857
10
73.942001342773438
20
2.1159999370574951
10
73.38800048828125
20
2.2060000896453857
10
72.971000671386719
20
2.4100000858306885
10
72.704002380371094
20
2.6289999485015869
10
72.485000610351562
20
2.8949999809265137
10
72.280998229980469
20
3.3129999637603764
0
LWPOLYLINE
5
109
100
AcDbEntity
8
0
100
AcDbPolyline
90
24
70
1
43
0.0
10
18.191999435424805
20
156.17100524902344
10
18.281000137329102
20
156.72500610351562
10
18.485000610351562
20
157.14199829101562
10
18.704000473022461
20
157.40899658203125
10
18.971000671386719
20
157.62699890136719
10
19.38800048828125
20
157.83099365234375
10
19.941999435424805
20
157.92100524902344
10
20.495000839233398
20
157.83099365234375
10
20.91200065612793
20
157.62699890136719
10
21.179000854492188
20
157.40899658203125
10
21.398000717163086
20
157.14199829101562
10
21.601999282836918
20
156.72500610351562
10
21.691999435424805
20
156.17100524902344
10
21.601999282836918
20
155.61799621582031
10
21.398000717163086
20
155.20100402832031
10
21.179000854492188
20
154.93400573730469
10
20.91200065612793
20
154.71499633789062
10
20.495000839233398
20
154.51100158691406
10
19.941999435424805
20
154.42100524902344
10
19.38800048828125
20
154.51100158691406
10
18.971000671386719
20
154.71499633789062
10
18.704000473022461
20
154.93400573730469
10
18.485000610351562
20
155.20100402832031
10
18.281000137329102
20
155.61799621582031
0
LWPOLYLINE
5
110
100
AcDbEntity
8
0
100
AcDbPolyline
90
24
70
1
43
0.0
10
-23.009000778198242
20
144.62300109863281
10
-22.805000305175781
20
144.20599365234375
10
-22.715000152587891
20
143.65199279785156
10
-22.805000305175781
20
143.0989990234375
10
-23.009000778198242
20
142.68099975585938
10
-23.228000640869141
20
142.41499328613281
10
-23.493999481201172
20
142.19599914550781
10
-23.91200065612793
20
141.99200439453125
10
-24.465000152587891
20
141.90199279785156
10
-25.017999649047855
20
141.99200439453125
10
-25.436000823974609
20
142.19599914550781
10
-25.701999664306641
20
142.41499328613281
10
-25.920999526977543
20
142.68099975585938
10
-26.125000000000004
20
143.0989990234375
10
-26.215000152587891
20
143.65199279785156
10
-26.125000000000004
20
144.20599365234375
10
-25.920999526977543
20
144.62300109863281
10
-25.701999664306641
20
144.88999938964844
10
-25.436000823974609
20
145.10800170898438
10
-25.017999649047855
20
145.31199645996094
10
-24.465000152587891
20
145.40199279785156
10
-23.91200065612793
20
145.31199645996094
10
-23.493999481201172
20
145.10800170898438
10
-23.228000640869141
20
144.88999938964844
0
LWPOLYLINE
5
111
100
AcDbEntity
8
0
100
AcDbPolyline
90
24
70
1
43
0.0
10
-11.203000068664551
20
133.6199951171875
10
-10.678999900817871
20
133.82000732421875
10
-10.215000152587892
20
133.85200500488281
10
-9.875
20
133.79600524902344
10
-9.5520000457763672
20
133.67500305175781
10
-9.1660003662109375
20
133.41600036621094
10
-8.8120002746582031
20
132.98199462890625
10
-8.6120004653930664
20
132.45799255371094
10
-8.5799999237060547
20
131.9949951171875
10
-8.6350002288818359
20
131.65400695800781
10
-8.7569999694824219
20
131.33099365234375
10
-9.0159997940063477
20
130.94599914550781
10
-9.4499998092651367
20
130.59100341796875
10
-9.9729995727539062
20
130.39100646972656
10
-10.437000274658203
20
130.35899353027344
10
-10.777000427246096
20
130.41499328613281
10
-11.100000381469728
20
130.53599548339844
10
-11.486000061035158
20
130.79499816894531
10
-11.840999603271484
20
131.22900390625
10
-12.039999961853027
20
131.75300598144531
10
-12.072999954223633
20
132.21600341796875
10
-12.017000198364258
20
132.5570068359375
10
-11.895999908447266
20
132.87899780273438
10
-11.637000083923342
20
133.26499938964844
0
LWPOLYLINE
5
112
100
AcDbEntity
8
0
100
AcDbPolyline
90
24
70
1
43
0.0
10
-65.307998657226562
20
3.8659999370574956
10
-65.398002624511719
20
3.3129999637603764
10
-65.601997375488281
20
2.8949999809265137
10
-65.820999145507812
20
2.6289999485015869
10
-66.087997436523438
20
2.4100000858306885
10
-66.504997253417969
20
2.2060000896453857
10
-67.057998657226562
20
2.1159999370574951
10
-67.61199951171875
20
2.2060000896453857
10
-68.028999328613281
20
2.4100000858306885
10
-68.295997619628906
20
2.6289999485015869
10
-68.514999389648438
20
2.8949999809265137
10
-68.719001770019531
20
3.3129999637603764
10
-68.807998657226562
20
3.8659999370574956
10
-68.719001770019531
20
4.4200000762939453
10
-68.514999389648438
20
4.8369998931884766
10
-68.295997619628906
20
5.1040000915527353
10
-68.028999328613281
20
5.3220000267028809
10
-67.61199951171875
20
5.5260000228881836
10
-67.057998657226562
20
5.6160001754760742
10
-66.504997253417969
20
5.5260000228881836
10
-66.087997436523438
20
5.3220000267028809
10
-65.820999145507812
20
5.1040000915527353
10
-65.601997375488281
20
4.8369998931884766
10
-65.398002624511719
20
4.4200000762939453
0
LWPOLYLINE
5
113
100
AcDbEntity
8
0
100
AcDbPolyline
90
24
70
1
43
0.0
10
36.495998382568359
20
136.30900573730469
10
36.405998229980469
20
135.7550048828125
10
36.201999664306641
20
135.33799743652344
10
35.983001708984375
20
135.07099914550781
10
35.716999053955078
20
134.85299682617188
10
35.298999786376953
20
134.64799499511719
10
34.745998382568359
20
134.55900573730469
10
34.193000793457031
20
134.64799499511719
10
33.775001525878906
20
134.85299682617188
10
33.508998870849609
20
135.07099914550781
10
33.290000915527344
20
135.33799743652344
10
33.08599853515625
20
135.7550048828125
10
32.995998382568359
20
136.30900573730469
10
33.08599853515625
20
136.86199951171875
10
33.290000915527344
20
137.27900695800781
10
33.508998870849609
20
137.54600524902344
10
33.775001525878906
20
137.76499938964844
10
34.193000793457031
20
137.968994140625
10
34.745998382568359
20
138.05900573730469
10
35.298999786376953
20
137.968994140625
10
35.716999053955078
20
137.76499938964844
10
35.983001708984375
20
137.54600524902344
10
36.201999664306641
20
137.27900695800781
10
36.405998229980469
20
136.86199951171875
0
LWPOLYLINE
5
114
100
AcDbEntity
8
0
100
AcDbPolyline
90
24
70
1
43
0.0
10
-39.645999908447266
20
135.7550048828125
10
-39.849998474121094
20
135.33799743652344
10
-40.069000244140625
20
135.07099914550781
10
-40.334999084472656
20
134.85299682617188
10
-40.752998352050788
20
134.64799499511719
10
-41.305999755859375
20
134.55900573730469
10
-41.860000610351562
20
134.64799499511719
10
-42.277000427246094
20
134.85299682617188
10
-42.543998718261726
20
135.07099914550781
10
-42.762001037597656
20
135.33799743652344
10
-42.965999603271491
20
135.7550048828125
10
-43.055999755859375
20
136.30900573730469
10
-42.965999603271491
20
136.86199951171875
10
-42.762001037597656
20
137.27900695800781
10
-42.543998718261726
20
137.54600524902344
10
-42.277000427246094
20
137.76499938964844
10
-41.860000610351562
20
137.968994140625
10
-41.305999755859375
20
138.05900573730469
10
-40.752998352050788
20
137.968994140625
10
-40.334999084472656
20
137.76499938964844
10
-40.069000244140625
20
137.54600524902344
10
-39.849998474121094
20
137.27900695800781
10
-39.645999908447266
20
136.86199951171875
10
-39.555999755859375
20
136.30900573730469
0
LWPOLYLINE
5
115
100
AcDbEntity
8
0
100
AcDbPolyline
90
24
70
1
43
0.0
10
-48.104999542236335
20
155.61799621582031
10
-48.308998107910163
20
155.20100402832031
10
-48.527999877929695
20
154.93400573730469
10
-48.793998718261726
20
154.71499633789062
10
-49.212001800537109
20
154.51100158691406
10
-49.764999389648438
20
154.42100524902344
10
-50.318000793457038
20
154.51100158691406
10
-50.736000061035156
20
154.71499633789062
10
-51.001998901367188
20
154.93400573730469
10
-51.221000671386719
20
155.20100402832031
10
-51.424999237060547
20
155.61799621582031
10
-51.514999389648438
20
156.17100524902344
10
-51.424999237060547
20
156.72500610351562
10
-51.221000671386719
20
157.14199829101562
10
-51.001998901367188
20
157.40899658203125
10
-50.736000061035156
20
157.62699890136719
10
-50.318000793457038
20
157.83099365234375
10
-49.764999389648438
20
157.92100524902344
10
-49.212001800537109
20
157.83099365234375
10
-48.793998718261726
20
157.62699890136719
10
-48.527999877929695
20
157.40899658203125
10
-48.308998107910163
20
157.14199829101562
10
-48.104999542236335
20
156.72500610351562
10
-48.014999389648445
20
156.17100524902344
0
LWPOLYLINE
5
116
100
AcDbEntity
8
0
100
AcDbPolyline
90
24
70
1
43
0.0
10
117.50599670410156
20
17.840999603271484
10
117.77200317382814
20
17.62299919128418
10
117.99099731445312
20
17.356000900268555
10
118.19499969482422
20
16.938999176025391
10
118.28500366210939
20
16.385000228881836
10
118.19499969482422
20
15.831999778747559
10
117.99099731445312
20
15.414999961853029
10
117.77200317382814
20
15.147999763488771
10
117.50599670410156
20
14.928999900817871
10
117.08799743652344
20
14.725000381469728
10
116.53500366210938
20
14.635000228881836
10
115.9810028076172
20
14.725000381469728
10
115.56400299072266
20
14.928999900817871
10
115.2969970703125
20
15.147999763488771
10
115.07900238037109
20
15.414999961853029
10
114.875
20
15.831999778747559
10
114.78500366210938
20
16.385000228881836
10
114.875
20
16.938999176025391
10
115.07900238037109
20
17.356000900268555
10
115.2969970703125
20
17.62299919128418
10
115.56400299072266
20
17.840999603271484
10
115.9810028076172
20
18.045000076293945
10
116.53500366210938
20
18.135000228881836
10
117.08799743652344
20
18.045000076293945
0
LWPOLYLINE
5
117
100
AcDbEntity
8
0
100
AcDbPolyline
90
32
70
1
43
0.0
10
64.554000854492188
20
28.058000564575195
10
64.643997192382812
20
27.504999160766602
10
64.554000854492188
20
26.951000213623047
10
64.349998474121094
20
26.534000396728516
10
64.132003784179688
20
26.267000198364258
10
63.865001678466804
20
26.048999786376953
10
63.448001861572266
20
25.844999313354492
10
62.894001007080078
20
25.754999160766605
10
62.863998413085938
20
25.760000228881839
10
62.863998413085938
20
25.754999160766605
10
47.201000213623054
20
25.754999160766605
10
47.201000213623054
20
25.764999389648438
10
46.709999084472656
20
25.844999313354492
10
46.292999267578125
20
26.048999786376953
10
46.0260009765625
20
26.267000198364258
10
45.807998657226562
20
26.534000396728516
10
45.604000091552734
20
26.951000213623047
10
45.513999938964844
20
27.504999160766602
10
45.604000091552734
20
28.058000564575195
10
45.807998657226562
20
28.47599983215332
10
46.0260009765625
20
28.742000579833984
10
46.292999267578125
20
28.961000442504883
10
46.709999084472656
20
29.165000915527344
10
47.201000213623054
20
29.245000839233398
10
47.201000213623054
20
29.254999160766602
10
62.863998413085938
20
29.254999160766602
10
62.863998413085938
20
29.250000000000004
10
62.894001007080078
20
29.254999160766602
10
63.448001861572266
20
29.165000915527344
10
63.865001678466804
20
28.961000442504883
10
64.132003784179688
20
28.742000579833984
10
64.349998474121094
20
28.47599983215332
0
LWPOLYLINE
5
118
100
AcDbEntity
8
0
100
AcDbPolyline
90
24
70
1
43
0.0
10
91.235000610351577
20
5.6160001754760742
10
91.788002014160156
20
5.5260000228881836
10
92.206001281738281
20
5.3220000267028809
10
92.472000122070312
20
5.1040000915527353
10
92.691001892089844
20
4.8369998931884766
10
92.894996643066406
20
4.4200000762939453
10
92.985000610351562
20
3.8659999370574956
10
92.894996643066406
20
3.3129999637603764
10
92.691001892089844
20
2.8949999809265137
10
92.472000122070312
20
2.6289999485015869
10
92.206001281738281
20
2.4100000858306885
10
91.788002014160156
20
2.2060000896453857
10
91.235000610351577
20
2.1159999370574951
10
90.680999755859375
20
2.2060000896453857
10
90.263999938964844
20
2.4100000858306885
10
89.997001647949219
20
2.6289999485015869
10
89.778999328613281
20
2.8949999809265137
10
89.574996948242202
20
3.3129999637603764
10
89.485000610351562
20
3.8659999370574956
10
89.574996948242202
20
4.4200000762939453
10
89.778999328613281
20
4.8369998931884766
10
89.997001647949219
20
5.1040000915527353
10
90.263999938964844
20
5.3220000267028809
10
90.680999755859375
20
5.5260000228881836
0
LWPOLYLINE
5
119
100
AcDbEntity
8
0
100
AcDbPolyline
90
24
70
1
43
0.0
10
-10.913000106811523
20
29.658000946044925
10
-10.583999633789062
20
29.763000488281254
10
-10.241000175476074
20
29.801000595092777
10
-9.7799997329711914
20
29.745000839233402
10
-9.2670001983642578
20
29.518999099731449
10
-8.8520002365112305
20
29.142999649047852
10
-8.6129999160766602
20
28.743999481201175
10
-8.508000373840332
20
28.416000366210938
10
-8.4700002670288086
20
28.072999954223636
10
-8.5260000228881836
20
27.61199951171875
10
-8.7519998550415039
20
27.099000930786133
10
-9.1280002593994141
20
26.683000564575199
10
-9.5260000228881836
20
26.444000244140629
10
-9.8549995422363281
20
26.340000152587891
10
-10.197999954223633
20
26.301000595092777
10
-10.659000396728516
20
26.357000350952152
10
-11.171999931335449
20
26.583000183105469
10
-11.586999893188477
20
26.95999908447266
10
-11.826000213623047
20
27.357999801635742
10
-11.930999755859375
20
27.687000274658207
10
-11.968999862670898
20
28.028999328613281
10
-11.913999557495119
20
28.490999221801761
10
-11.687999725341797
20
29.003999710083011
10
-11.310999870300293
20
29.419000625610355
0
LWPOLYLINE
5
120
100
AcDbEntity
8
0
100
AcDbPolyline
90
24
70
1
43
0.0
10
75.694999694824219
20
24.281999588012695
10
75.785003662109375
20
23.729000091552734
10
75.694999694824219
20
23.17499923706055
10
75.490997314453125
20
22.757999420166016
10
75.273002624511719
20
22.490999221801758
10
75.005996704101562
20
22.273000717163086
10
74.587997436523438
20
22.069000244140625
10
74.035003662109375
20
21.979000091552734
10
73.482002258300781
20
22.069000244140625
10
73.064002990722656
20
22.273000717163086
10
72.797996520996094
20
22.490999221801758
10
72.579002380371094
20
22.757999420166016
10
72.375
20
23.17499923706055
10
72.285003662109375
20
23.729000091552734
10
72.375
20
24.281999588012695
10
72.579002380371094
20
24.69899940490723
10
72.797996520996094
20
24.965999603271488
10
73.064002990722656
20
25.184999465942383
10
73.482002258300781
20
25.388999938964844
10
74.035003662109375
20
25.479000091552738
10
74.587997436523438
20
25.388999938964844
10
75.005996704101562
20
25.184999465942383
10
75.273002624511719
20
24.965999603271488
10
75.490997314453125
20
24.69899940490723
0
LWPOLYLINE
5
121
100
AcDbEntity
8
0
100
AcDbPolyline
90
24
70
1
43
0.0
10
107.19400024414064
20
16.938999176025391
10
107.28299713134767
20
16.385000228881836
10
107.19400024414064
20
15.831999778747559
10
106.98899841308595
20
15.414999961853029
10
106.77100372314455
20
15.147999763488771
10
106.50399780273439
20
14.928999900817871
10
106.08699798583984
20
14.725000381469728
10
105.53299713134766
20
14.635000228881836
10
104.98000335693361
20
14.725000381469728
10
104.56300354003908
20
14.928999900817871
10
104.29599761962891
20
15.147999763488771
10
104.07700347900391
20
15.414999961853029
10
103.87300109863283
20
15.831999778747559
10
103.78299713134766
20
16.385000228881836
10
103.87300109863283
20
16.938999176025391
10
104.07700347900391
20
17.356000900268555
10
104.29599761962891
20
17.62299919128418
10
104.56300354003908
20
17.840999603271484
10
104.98000335693361
20
18.045000076293945
10
105.53299713134766
20
18.135000228881836
10
106.08699798583984
20
18.045000076293945
10
106.50399780273439
20
17.840999603271484
10
106.77100372314455
20
17.62299919128418
10
106.98899841308595
20
17.356000900268555
0
LWPOLYLINE
5
122
100
AcDbEntity
8
0
100
AcDbPolyline
90
24
70
1
43
0.0
10
-120.50499725341797
20
5.5260000228881836
10
-120.08799743652345
20
5.3220000267028809
10
-119.82099914550781
20
5.1040000915527353
10
-119.60199737548828
20
4.8369998931884766
10
-119.39800262451172
20
4.4200000762939453
10
-119.30799865722656
20
3.8659999370574956
10
-119.39800262451172
20
3.3129999637603764
10
-119.60199737548828
20
2.8949999809265137
10
-119.82099914550781
20
2.6289999485015869
10
-120.08799743652345
20
2.4100000858306885
10
-120.50499725341797
20
2.2060000896453857
10
-121.05799865722658
20
2.1159999370574951
10
-121.61199951171875
20
2.2060000896453857
10
-122.02899932861328
20
2.4100000858306885
10
-122.29599761962891
20
2.6289999485015869
10
-122.51499938964844
20
2.8949999809265137
10
-122.71900177001953
20
3.3129999637603764
10
-122.80799865722656
20
3.8659999370574956
10
-122.71900177001953
20
4.4200000762939453
10
-122.51499938964844
20
4.8369998931884766
10
-122.29599761962891
20
5.1040000915527353
10
-122.02899932861328
20
5.3220000267028809
10
-121.61199951171875
20
5.5260000228881836
10
-121.05799865722658
20
5.6160001754760742
0
LWPOLYLINE
5
123
100
AcDbEntity
8
0
100
AcDbPolyline
90
24
70
1
43
0.0
10
-122.08599853515625
20
25.353000640869144
10
-121.86699676513672
20
25.086000442504886
10
-121.66300201416016
20
24.669000625610352
10
-121.572998046875
20
24.115999221801761
10
-121.66300201416016
20
23.562000274658207
10
-121.86699676513672
20
23.145000457763672
10
-122.08599853515625
20
22.878000259399414
10
-122.35299682617189
20
22.659999847412109
10
-122.76999664306642
20
22.454999923706055
10
-123.32299804687501
20
22.365999221801758
10
-123.87699890136719
20
22.454999923706055
10
-124.29399871826172
20
22.659999847412109
10
-124.56099700927736
20
22.878000259399414
10
-124.77899932861328
20
23.145000457763672
10
-124.98400115966797
20
23.562000274658207
10
-125.072998046875
20
24.115999221801761
10
-124.98400115966797
20
24.669000625610352
10
-124.77899932861328
20
25.086000442504886
10
-124.56099700927736
20
25.353000640869144
10
-124.29399871826172
20
25.572000503540039
10
-123.87699890136719
20
25.775999069213871
10
-123.32299804687501
20
25.865999221801758
10
-122.76999664306642
20
25.775999069213871
10
-122.35299682617189
20
25.572000503540039
0
LWPOLYLINE
5
124
100
AcDbEntity
8
0
100
AcDbPolyline
90
24
70
1
43
0.0
10
-141.62800598144531
20
134.18099975585938
10
-142.18099975585938
20
134.27099609375
10
-142.59800720214844
20
134.47500610351562
10
-142.86500549316406
20
134.69400024414062
10
-143.08399963378906
20
134.96000671386719
10
-143.28799438476562
20
135.37800598144531
10
-143.37800598144531
20
135.93099975585938
10
-143.28799438476562
20
136.48500061035156
10
-143.08399963378906
20
136.90199279785156
10
-142.86500549316406
20
137.16900634765625
10
-142.59800720214844
20
137.38699340820312
10
-142.18099975585938
20
137.59100341796875
10
-141.62800598144531
20
137.68099975585938
10
-141.07400512695312
20
137.59100341796875
10
-140.65699768066406
20
137.38699340820312
10
-140.38999938964844
20
137.16900634765625
10
-140.1719970703125
20
136.90199279785156
10
-139.96699523925781
20
136.48500061035156
10
-139.87800598144531
20
135.93099975585938
10
-139.96699523925781
20
135.37800598144531
10
-140.1719970703125
20
134.96000671386719
10
-140.38999938964844
20
134.69400024414062
10
-140.65699768066406
20
134.47500610351562
10
-141.07400512695312
20
134.27099609375
0
LWPOLYLINE
5
125
100
AcDbEntity
8
0
100
AcDbPolyline
90
24
70
1
43
0.0
10
-65.509002685546875
20
135.33799743652344
10
-65.726997375488281
20
135.07099914550781
10
-65.994003295898438
20
134.85299682617188
10
-66.411003112792969
20
134.64799499511719
10
-66.964996337890625
20
134.55900573730469
10
-67.517997741699219
20
134.64799499511719
10
-67.935997009277344
20
134.85299682617188
10
-68.202003479003906
20
135.07099914550781
10
-68.420997619628906
20
135.33799743652344
10
-68.625
20
135.7550048828125
10
-68.714996337890625
20
136.30900573730469
10
-68.625
20
136.86199951171875
10
-68.420997619628906
20
137.27900695800781
10
-68.202003479003906
20
137.54600524902344
10
-67.935997009277344
20
137.76499938964844
10
-67.517997741699219
20
137.968994140625
10
-66.964996337890625
20
138.05900573730469
10
-66.411003112792969
20
137.968994140625
10
-65.994003295898438
20
137.76499938964844
10
-65.726997375488281
20
137.54600524902344
10
-65.509002685546875
20
137.27900695800781
10
-65.305000305175781
20
136.86199951171875
10
-65.214996337890625
20
136.30900573730469
10
-65.305000305175781
20
135.7550048828125
0
LWPOLYLINE
5
126
100
AcDbEntity
8
0
100
AcDbPolyline
90
32
70
1
43
0.0
10
-76.445999145507812
20
133.08599853515625
10
-76.356002807617188
20
132.53199768066406
10
-76.445999145507812
20
131.97900390625
10
-76.650001525878906
20
131.56199645996094
10
-76.867996215820312
20
131.29499816894531
10
-77.135002136230469
20
131.07600402832031
10
-77.552001953125
20
130.87199401855469
10
-78.106002807617188
20
130.78199768066406
10
-78.136001586914062
20
130.78700256347656
10
-78.136001586914062
20
130.78199768066406
10
-93.799003601074219
20
130.78199768066406
10
-93.799003601074219
20
130.79299926757812
10
-94.290000915527358
20
130.87199401855469
10
-94.707000732421875
20
131.07600402832031
10
-94.9739990234375
20
131.29499816894531
10
-95.192001342773438
20
131.56199645996094
10
-95.396003723144531
20
131.97900390625
10
-95.486000061035156
20
132.53199768066406
10
-95.396003723144531
20
133.08599853515625
10
-95.192001342773438
20
133.50300598144531
10
-94.9739990234375
20
133.77000427246094
10
-94.707000732421875
20
133.98899841308594
10
-94.290000915527358
20
134.1929931640625
10
-93.799003601074219
20
134.27200317382812
10
-93.799003601074219
20
134.28199768066406
10
-78.136001586914062
20
134.28199768066406
10
-78.136001586914062
20
134.27799987792969
10
-78.106002807617188
20
134.28199768066406
10
-77.552001953125
20
134.1929931640625
10
-77.135002136230469
20
133.98899841308594
10
-76.867996215820312
20
133.77000427246094
10
-76.650001525878906
20
133.50300598144531
0
LWPOLYLINE
5
127
100
AcDbEntity
8
0
100
AcDbPolyline
90
24
70
1
43
0.0
10
-104.59400177001953
20
135.7550048828125
10
-104.79799652099609
20
135.33799743652344
10
-105.01699829101562
20
135.07099914550781
10
-105.28299713134766
20
134.85299682617188
10
-105.70099639892578
20
134.64900207519531
10
-106.25399780273439
20
134.55900573730469
10
-106.80699920654298
20
134.64799499511719
10
-107.22499847412109
20
134.85299682617188
10
-107.49099731445312
20
135.07099914550781
10
-107.70999908447266
20
135.33799743652344
10
-107.91400146484376
20
135.7550048828125
10
-108.00399780273438
20
136.30900573730469
10
-107.91400146484376
20
136.86199951171875
10
-107.70999908447266
20
137.27900695800781
10
-107.49099731445312
20
137.54600524902344
10
-107.22499847412109
20
137.76499938964844
10
-106.80699920654298
20
137.968994140625
10
-106.25399780273439
20
138.05900573730469
10
-105.70099639892578
20
137.968994140625
10
-105.28299713134766
20
137.76499938964844
10
-105.01699829101562
20
137.54600524902344
10
-104.79799652099609
20
137.27900695800781
10
-104.59400177001953
20
136.86199951171875
10
-104.50399780273438
20
136.30900573730469
0
LWPOLYLINE
5
128
100
AcDbEntity
8
0
100
AcDbPolyline
90
24
70
1
43
0.0
10
-121.78700256347656
20
135.18899536132812
10
-121.99099731445314
20
134.77099609375
10
-122.20999908447267
20
134.5050048828125
10
-122.4759979248047
20
134.28599548339844
10
-122.89399719238283
20
134.08200073242188
10
-123.44699859619141
20
133.99200439453125
10
-124.00099945068361
20
134.08200073242188
10
-124.41799926757812
20
134.28599548339844
10
-124.68499755859376
20
134.5050048828125
10
-124.90299987792969
20
134.77099609375
10
-125.10700225830078
20
135.18899536132812
10
-125.19699859619141
20
135.74200439453125
10
-125.10700225830078
20
136.29499816894531
10
-124.90299987792969
20
136.71299743652344
10
-124.68499755859376
20
136.97900390625
10
-124.41799926757812
20
137.197998046875
10
-124.00099945068361
20
137.40199279785156
10
-123.44699859619141
20
137.49200439453125
10
-122.89399719238283
20
137.40199279785156
10
-122.4759979248047
20
137.197998046875
10
-122.20999908447267
20
136.97900390625
10
-121.99099731445314
20
136.71299743652344
10
-121.78700256347656
20
136.29499816894531
10
-121.69699859619142
20
135.74200439453125
0
LWPOLYLINE
5
129
100
AcDbEntity
8
0
100
AcDbPolyline
90
24
70
1
43
0.0
10
-119.30799865722656
20
156.17100524902344
10
-119.39800262451172
20
155.61799621582031
10
-119.60199737548828
20
155.20100402832031
10
-119.82099914550781
20
154.93400573730469
10
-120.08799743652345
20
154.71499633789062
10
-120.50499725341797
20
154.51100158691406
10
-121.05799865722658
20
154.42100524902344
10
-121.61199951171875
20
154.51100158691406
10
-122.02899932861328
20
154.71499633789062
10
-122.29599761962891
20
154.93400573730469
10
-122.51499938964844
20
155.20100402832031
10
-122.71900177001953
20
155.61799621582031
10
-122.80799865722656
20
156.17100524902344
10
-122.71900177001953
20
156.72500610351562
10
-122.51499938964844
20
157.14199829101562
10
-122.29599761962891
20
157.40899658203125
10
-122.02899932861328
20
157.62699890136719
10
-121.61199951171875
20
157.83099365234375
10
-121.05799865722658
20
157.92100524902344
10
-120.50499725341797
20
157.83099365234375
10
-120.08799743652345
20
157.62699890136719
10
-119.82099914550781
20
157.40899658203125
10
-119.60199737548828
20
157.14199829101562
10
-119.39800262451172
20
156.72500610351562
0
LWPOLYLINE
5
130
100
AcDbEntity
8
0
100
AcDbPolyline
90
24
70
1
43
0.0
10
-130.67999267578125
20
152.00999450683594
10
-130.59100341796875
20
151.45700073242188
10
-130.67999267578125
20
150.90299987792969
10
-130.88499450683594
20
150.48599243164062
10
-131.10299682617188
20
150.218994140625
10
-131.3699951171875
20
150.00100708007812
10
-131.78700256347656
20
149.7969970703125
10
-132.34100341796875
20
149.70700073242188
10
-132.89399719238281
20
149.7969970703125
10
-133.31100463867188
20
150.00100708007812
10
-133.5780029296875
20
150.218994140625
10
-133.7969970703125
20
150.48599243164062
10
-134.00100708007812
20
150.90299987792969
10
-134.09100341796875
20
151.45700073242188
10
-134.00100708007812
20
152.00999450683594
10
-133.7969970703125
20
152.42799377441406
10
-133.5780029296875
20
152.69400024414062
10
-133.31100463867188
20
152.91299438476562
10
-132.89399719238281
20
153.11700439453125
10
-132.34100341796875
20
153.20700073242188
10
-131.78700256347656
20
153.11700439453125
10
-131.3699951171875
20
152.91299438476562
10
-131.10299682617188
20
152.69400024414062
10
-130.88499450683594
20
152.42799377441406
0
LWPOLYLINE
5
131
100
AcDbEntity
8
0
100
AcDbPolyline
90
24
70
1
43
0.0
10
-142.0570068359375
20
25.965000152587891
10
-141.50399780273438
20
26.055000305175785
10
-140.94999694824219
20
25.965000152587891
10
-140.53300476074219
20
25.76099967956543
10
-140.26699829101562
20
25.541999816894535
10
-140.04800415039062
20
25.275999069213867
10
-139.843994140625
20
24.857999801635742
10
-139.75399780273438
20
24.305000305175781
10
-139.843994140625
20
23.750999450683597
10
-140.04800415039062
20
23.333999633789062
10
-140.26600646972656
20
23.066999435424805
10
-140.53300476074219
20
22.849000930786133
10
-140.95100402832031
20
22.645000457763672
10
-141.50399780273438
20
22.555000305175781
10
-142.0570068359375
20
22.645000457763672
10
-142.47500610351562
20
22.849000930786133
10
-142.74099731445312
20
23.066999435424805
10
-142.96000671386719
20
23.333999633789062
10
-143.16400146484375
20
23.750999450683597
10
-143.25399780273438
20
24.305000305175781
10
-143.16400146484375
20
24.857999801635742
10
-142.96000671386719
20
25.275999069213867
10
-142.74099731445312
20
25.541999816894535
10
-142.47500610351562
20
25.76099967956543
0
LWPOLYLINE
5
132
100
AcDbEntity
8
0
100
AcDbPolyline
90
24
70
1
43
0.0
10
-132.0570068359375
20
10.250000000000002
10
-131.63999938964844
20
10.045999526977541
10
-131.37300109863281
20
9.8269996643066406
10
-131.15400695800781
20
9.560999870300293
10
-130.94999694824219
20
9.1429996490478516
10
-130.86099243164062
20
8.5900001525878906
10
-130.94999694824219
20
8.0369997024536133
10
-131.15400695800781
20
7.6189999580383301
10
-131.37300109863281
20
7.3530001640319833
10
-131.63999938964844
20
7.1339998245239267
10
-132.0570068359375
20
6.929999828338623
10
-132.61000061035156
20
6.8400001525878906
10
-133.16400146484375
20
6.929999828338623
10
-133.58099365234375
20
7.1339998245239267
10
-133.84800720214844
20
7.3530001640319833
10
-134.06700134277344
20
7.6189999580383301
10
-134.27099609375
20
8.0369997024536133
10
-134.36099243164062
20
8.5900001525878906
10
-134.27099609375
20
9.1429996490478516
10
-134.06700134277344
20
9.560999870300293
10
-133.84800720214844
20
9.8269996643066406
10
-133.58099365234375
20
10.045999526977541
10
-133.16400146484375
20
10.250000000000002
10
-132.61000061035156
20
10.340000152587891
0
LWPOLYLINE
5
133
100
AcDbEntity
8
0
100
AcDbPolyline
90
24
70
1
43
0.0
10
-65.307998657226562
20
156.17100524902344
10
-65.398002624511719
20
155.61799621582031
10
-65.601997375488281
20
155.20100402832031
10
-65.820999145507812
20
154.93400573730469
10
-66.087997436523438
20
154.71499633789062
10
-66.504997253417969
20
154.51100158691406
10
-67.057998657226562
20
154.42100524902344
10
-67.61199951171875
20
154.51100158691406
10
-68.028999328613281
20
154.71499633789062
10
-68.295997619628906
20
154.93400573730469
10
-68.514999389648438
20
155.20100402832031
10
-68.719001770019531
20
155.61799621582031
10
-68.807998657226562
20
156.17100524902344
10
-68.719001770019531
20
156.72500610351562
10
-68.514999389648438
20
157.14199829101562
10
-68.295997619628906
20
157.40899658203125
10
-68.028999328613281
20
157.62699890136719
10
-67.61199951171875
20
157.83099365234375
10
-67.057998657226562
20
157.92100524902344
10
-66.504997253417969
20
157.83099365234375
10
-66.087997436523438
20
157.62699890136719
10
-65.820999145507812
20
157.40899658203125
10
-65.601997375488281
20
157.14199829101562
10
-65.398002624511719
20
156.72500610351562
0
LWPOLYLINE
5
134
100
AcDbEntity
8
0
100
AcDbPolyline
90
24
70
1
43
0.0
10
-105.70099639892578
20
25.388999938964844
10
-105.28299713134766
20
25.184999465942383
10
-105.01699829101562
20
24.965999603271488
10
-104.79799652099609
20
24.69899940490723
10
-104.59400177001953
20
24.281999588012695
10
-104.50399780273438
20
23.729000091552734
10
-104.59400177001953
20
23.17499923706055
10
-104.79799652099609
20
22.757999420166016
10
-105.01699829101562
20
22.490999221801758
10
-105.28299713134766
20
22.273000717163086
10
-105.70099639892578
20
22.069000244140625
10
-106.25399780273439
20
21.979000091552734
10
-106.80699920654298
20
22.069000244140625
10
-107.22499847412109
20
22.273000717163086
10
-107.49099731445312
20
22.490999221801758
10
-107.70999908447266
20
22.757999420166016
10
-107.91400146484376
20
23.17499923706055
10
-108.00399780273438
20
23.729000091552734
10
-107.91400146484376
20
24.281999588012695
10
-107.70999908447266
20
24.69899940490723
10
-107.49099731445312
20
24.965999603271488
10
-107.22499847412109
20
25.184999465942383
10
-106.80699920654298
20
25.388999938964844
10
-106.25399780273439
20
25.479000091552738
0
LWPOLYLINE
5
135
100
AcDbEntity
8
0
100
AcDbPolyline
90
24
70
1
43
0.0
10
-33.805999755859375
20
143.0989990234375
10
-34.009998321533203
20
142.68099975585938
10
-34.229000091552734
20
142.41499328613281
10
-34.495998382568359
20
142.19599914550781
10
-34.912998199462891
20
141.99200439453125
10
-35.465999603271484
20
141.90199279785156
10
-36.020000457763672
20
141.99200439453125
10
-36.437000274658203
20
142.19599914550781
10
-36.703998565673828
20
142.41499328613281
10
-36.923000335693359
20
142.68099975585938
10
-37.126998901367188
20
143.0989990234375
10
-37.216999053955078
20
143.65199279785156
10
-37.126998901367188
20
144.20599365234375
10
-36.923000335693359
20
144.62300109863281
10
-36.703998565673828
20
144.88999938964844
10
-36.437000274658203
20
145.10800170898438
10
-36.020000457763672
20
145.31199645996094
10
-35.466999053955078
20
145.40199279785156
10
-34.912998199462891
20
145.31199645996094
10
-34.495998382568359
20
145.10800170898438
10
-34.229000091552734
20
144.88999938964844
10
-34.009998321533203
20
144.62300109863281
10
-33.805999755859375
20
144.20599365234375
10
-33.716999053955078
20
143.65199279785156
0
LWPOLYLINE
5
136
100
AcDbEntity
8
0
100
AcDbPolyline
90
32
70
1
43
0.0
10
-76.445999145507812
20
28.058000564575195
10
-76.356002807617188
20
27.504999160766602
10
-76.445999145507812
20
26.951000213623047
10
-76.650001525878906
20
26.534000396728516
10
-76.867996215820312
20
26.267000198364258
10
-77.135002136230469
20
26.048999786376953
10
-77.552001953125
20
25.844999313354492
10
-78.106002807617188
20
25.754999160766605
10
-78.136001586914062
20
25.760000228881839
10
-78.136001586914062
20
25.754999160766605
10
-93.799003601074219
20
25.754999160766605
10
-93.799003601074219
20
25.764999389648438
10
-94.290000915527358
20
25.844999313354492
10
-94.707000732421875
20
26.048999786376953
10
-94.9739990234375
20
26.267000198364258
10
-95.192001342773438
20
26.534000396728516
10
-95.396003723144531
20
26.951000213623047
10
-95.486000061035156
20
27.504999160766602
10
-95.396003723144531
20
28.058000564575195
10
-95.192001342773438
20
28.47599983215332
10
-94.9739990234375
20
28.742000579833984
10
-94.707000732421875
20
28.961000442504883
10
-94.290000915527358
20
29.165000915527344
10
-93.799003601074219
20
29.245000839233398
10
-93.799003601074219
20
29.254999160766602
10
-78.136001586914062
20
29.254999160766602
10
-78.136001586914062
20
29.250000000000004
10
-78.106002807617188
20
29.254999160766602
10
-77.552001953125
20
29.165000915527344
10
-77.135002136230469
20
28.961000442504883
10
-76.867996215820312
20
28.742000579833984
10
-76.650001525878906
20
28.47599983215332
0
LWPOLYLINE
5
137
100
AcDbEntity
8
0
100
AcDbPolyline
90
32
70
1
43
0.0
10
63.448001861572266
20
134.1929931640625
10
63.865001678466804
20
133.98899841308594
10
64.132003784179688
20
133.77000427246094
10
64.349998474121094
20
133.50300598144531
10
64.554000854492188
20
133.08599853515625
10
64.643997192382812
20
132.53199768066406
10
64.554000854492188
20
131.97900390625
10
64.349998474121094
20
131.56199645996094
10
64.132003784179688
20
131.29499816894531
10
63.865001678466804
20
131.07600402832031
10
63.448001861572266
20
130.87199401855469
10
62.894001007080078
20
130.78199768066406
10
62.863998413085938
20
130.78700256347656
10
62.863998413085938
20
130.78199768066406
10
47.201000213623054
20
130.78199768066406
10
47.201000213623054
20
130.79299926757812
10
46.709999084472656
20
130.87199401855469
10
46.292999267578125
20
131.07600402832031
10
46.0260009765625
20
131.29499816894531
10
45.807998657226562
20
131.56199645996094
10
45.604000091552734
20
131.97900390625
10
45.513999938964844
20
132.53199768066406
10
45.604000091552734
20
133.08599853515625
10
45.807998657226562
20
133.50300598144531
10
46.0260009765625
20
133.77000427246094
10
46.292999267578125
20
133.98899841308594
10
46.709999084472656
20
134.1929931640625
10
47.201000213623054
20
134.27200317382812
10
47.201000213623054
20
134.28199768066406
10
62.863998413085938
20
134.28199768066406
10
62.863998413085938
20
134.27799987792969
10
62.894001007080078
20
134.28199768066406
0
LWPOLYLINE
5
138
100
AcDbEntity
8
0
100
AcDbPolyline
90
24
70
1
43
0.0
10
3.7899999618530278
20
140.69599914550781
10
3.7569999694824219
20
141.15899658203125
10
3.812999963760376
20
141.5
10
3.9340000152587895
20
141.822998046875
10
4.1929998397827148
20
142.20799255371094
10
4.6269998550415039
20
142.56300354003906
10
5.1510000228881836
20
142.76300048828125
10
5.6149997711181641
20
142.79499816894531
10
5.9549999237060547
20
142.73899841308594
10
6.2779998779296875
20
142.61799621582031
10
6.6640000343322754
20
142.35899353027344
10
7.0180001258850098
20
141.92500305175781
10
7.2179999351501465
20
141.4010009765625
10
7.2500000000000009
20
140.93800354003906
10
7.1950001716613778
20
140.59700012207031
10
7.0729999542236328
20
140.27499389648438
10
6.8140001296997079
20
139.88900756835938
10
6.380000114440918
20
139.53399658203125
10
5.8569998741149911
20
139.33500671386719
10
5.3930001258850098
20
139.302001953125
10
5.05299997329712
20
139.35800170898438
10
4.7300000190734863
20
139.47900390625
10
4.3439998626708984
20
139.73800659179688
10
3.9890000820159917
20
140.1719970703125
0
LWPOLYLINE
5
139
100
AcDbEntity
8
0
100
AcDbPolyline
90
24
70
1
43
0.0
10
75.692001342773438
20
156.17100524902344
10
75.601997375488281
20
155.61799621582031
10
75.398002624511719
20
155.20100402832031
10
75.179000854492188
20
154.93400573730469
10
74.912002563476562
20
154.71499633789062
10
74.495002746582031
20
154.51100158691406
10
73.942001342773438
20
154.42100524902344
10
73.38800048828125
20
154.51100158691406
10
72.971000671386719
20
154.71499633789062
10
72.704002380371094
20
154.93400573730469
10
72.485000610351562
20
155.20100402832031
10
72.280998229980469
20
155.61799621582031
10
72.192001342773438
20
156.17100524902344
10
72.280998229980469
20
156.72500610351562
10
72.485000610351562
20
157.14199829101562
10
72.704002380371094
20
157.40899658203125
10
72.971000671386719
20
157.62699890136719
10
73.38800048828125
20
157.83099365234375
10
73.942001342773438
20
157.92100524902344
10
74.495002746582031
20
157.83099365234375
10
74.912002563476562
20
157.62699890136719
10
75.179000854492188
20
157.40899658203125
10
75.398002624511719
20
157.14199829101562
10
75.601997375488281
20
156.72500610351562
0
LWPOLYLINE
5
140
100
AcDbEntity
8
0
100
AcDbPolyline
90
24
70
1
43
0.0
10
74.587997436523438
20
137.968994140625
10
75.005996704101562
20
137.76499938964844
10
75.273002624511719
20
137.54600524902344
10
75.490997314453125
20
137.27900695800781
10
75.694999694824219
20
136.86199951171875
10
75.785003662109375
20
136.30900573730469
10
75.694999694824219
20
135.7550048828125
10
75.490997314453125
20
135.33799743652344
10
75.273002624511719
20
135.07099914550781
10
75.005996704101562
20
134.85299682617188
10
74.587997436523438
20
134.64799499511719
10
74.035003662109375
20
134.55900573730469
10
73.482002258300781
20
134.64799499511719
10
73.064002990722656
20
134.85299682617188
10
72.797996520996094
20
135.07099914550781
10
72.579002380371094
20
135.33799743652344
10
72.375
20
135.7550048828125
10
72.285003662109375
20
136.30900573730469
10
72.375
20
136.86199951171875
10
72.579002380371094
20
137.27900695800781
10
72.797996520996094
20
137.54600524902344
10
73.064002990722656
20
137.76499938964844
10
73.482002258300781
20
137.968994140625
10
74.035003662109375
20
138.05900573730469
0
LWPOLYLINE
5
141
100
AcDbEntity
8
0
100
AcDbPolyline
90
24
70
1
43
0.0
10
-11.635000228881836
20
150.968994140625
10
-11.37600040435791
20
151.35499572753906
10
-10.942000389099123
20
151.71000671386719
10
-10.418000221252441
20
151.90899658203125
10
-9.9540004730224609
20
151.94099426269531
10
-9.6140003204345703
20
151.88600158691406
10
-9.2910003662109375
20
151.76400756835938
10
-8.9060001373291016
20
151.5050048828125
10
-8.550999641418457
20
151.07099914550781
10
-8.3509998321533203
20
150.54800415039062
10
-8.319000244140625
20
150.08399963378906
10
-8.3739995956420898
20
149.74400329589844
10
-8.4960002899169922
20
149.42100524902344
10
-8.755000114440918
20
149.03500366210938
10
-9.189000129699707
20
148.67999267578125
10
-9.7130002975463867
20
148.48100280761719
10
-10.175999641418459
20
148.447998046875
10
-10.515999794006348
20
148.50399780273438
10
-10.83899974822998
20
148.625
10
-11.225000381469727
20
148.88400268554688
10
-11.579999923706055
20
149.3179931640625
10
-11.779000282287598
20
149.84199523925781
10
-11.812000274658203
20
150.30599975585938
10
-11.755999565124513
20
150.64599609375
0
LWPOLYLINE
5
142
100
AcDbEntity
8
0
100
AcDbPolyline
90
24
70
1
43
0.0
10
-26.125000000000004
20
16.938999176025391
10
-25.920999526977543
20
17.356000900268555
10
-25.701999664306641
20
17.62299919128418
10
-25.436000823974609
20
17.840999603271484
10
-25.017999649047855
20
18.045000076293945
10
-24.465000152587891
20
18.135000228881836
10
-23.91200065612793
20
18.045000076293945
10
-23.493999481201172
20
17.840999603271484
10
-23.228000640869141
20
17.62299919128418
10
-23.009000778198242
20
17.356000900268555
10
-22.805000305175781
20
16.938999176025391
10
-22.715000152587891
20
16.385000228881836
10
-22.805000305175781
20
15.831999778747559
10
-23.009000778198242
20
15.413999557495117
10
-23.228000640869141
20
15.147999763488771
10
-23.493999481201172
20
14.928999900817871
10
-23.91200065612793
20
14.725000381469728
10
-24.465000152587891
20
14.635000228881836
10
-25.017999649047855
20
14.725000381469728
10
-25.436000823974609
20
14.928999900817871
10
-25.701999664306641
20
15.147999763488771
10
-25.920999526977543
20
15.414999961853029
10
-26.125000000000004
20
15.831999778747559
10
-26.215000152587891
20
16.385000228881836
0
LWPOLYLINE
5
143
100
AcDbEntity
8
0
100
AcDbPolyline
90
24
70
1
43
0.0
10
100.24700164794922
20
137.968994140625
10
100.66400146484376
20
137.76499938964844
10
100.93099975585938
20
137.54600524902344
10
101.15000152587891
20
137.27900695800781
10
101.35399627685547
20
136.86199951171875
10
101.44400024414062
20
136.30900573730469
10
101.35399627685547
20
135.7550048828125
10
101.15000152587891
20
135.33799743652344
10
100.93099975585938
20
135.07099914550781
10
100.66400146484376
20
134.85299682617188
10
100.24700164794922
20
134.64799499511719
10
99.694000244140639
20
134.55900573730469
10
99.139999389648438
20
134.64799499511719
10
98.722999572753906
20
134.85299682617188
10
98.456001281738281
20
135.07099914550781
10
98.237998962402344
20
135.33799743652344
10
98.033996582031264
20
135.7550048828125
10
97.944000244140625
20
136.30900573730469
10
98.033996582031264
20
136.86199951171875
10
98.237998962402344
20
137.27900695800781
10
98.456001281738281
20
137.54600524902344
10
98.722999572753906
20
137.76499938964844
10
99.139999389648438
20
137.968994140625
10
99.694000244140639
20
138.05900573730469
0
LWPOLYLINE
5
144
100
AcDbEntity
8
0
100
AcDbPolyline
90
24
70
1
43
0.0
10
-49.764999389648438
20
5.6160001754760742
10
-49.212001800537109
20
5.5260000228881836
10
-48.793998718261726
20
5.3220000267028809
10
-48.527999877929695
20
5.1040000915527353
10
-48.308998107910163
20
4.8369998931884766
10
-48.104999542236335
20
4.4200000762939453
10
-48.014999389648445
20
3.8659999370574956
10
-48.104999542236335
20
3.3129999637603764
10
-48.308998107910163
20
2.8949999809265137
10
-48.527999877929695
20
2.6289999485015869
10
-48.793998718261726
20
2.4100000858306885
10
-49.212001800537109
20
2.2060000896453857
10
-49.764999389648438
20
2.1159999370574951
10
-50.318000793457038
20
2.2060000896453857
10
-50.736000061035156
20
2.4100000858306885
10
-51.001998901367188
20
2.6289999485015869
10
-51.221000671386719
20
2.8949999809265137
10
-51.424999237060547
20
3.3129999637603764
10
-51.514999389648438
20
3.8659999370574956
10
-51.424999237060547
20
4.4200000762939453
10
-51.221000671386719
20
4.8369998931884766
10
-51.001998901367188
20
5.1040000915527353
10
-50.736000061035156
20
5.3220000267028809
10
-50.318000793457038
20
5.5260000228881836
0
LWPOLYLINE
5
145
100
AcDbEntity
8
0
100
AcDbPolyline
90
24
70
1
43
0.0
10
18.485000610351562
20
4.8369998931884766
10
18.704000473022461
20
5.1040000915527353
10
18.971000671386719
20
5.3220000267028809
10
19.38800048828125
20
5.5260000228881836
10
19.941999435424805
20
5.6160001754760742
10
20.495000839233398
20
5.5260000228881836
10
20.91200065612793
20
5.3220000267028809
10
21.179000854492188
20
5.1040000915527353
10
21.398000717163086
20
4.8369998931884766
10
21.601999282836918
20
4.4200000762939453
10
21.691999435424805
20
3.8659999370574956
10
21.601999282836918
20
3.3129999637603764
10
21.398000717163086
20
2.8949999809265137
10
21.179000854492188
20
2.6289999485015869
10
20.91200065612793
20
2.4100000858306885
10
20.495000839233398
20
2.2060000896453857
10
19.941999435424805
20
2.1159999370574951
10
19.38800048828125
20
2.2060000896453857
10
18.971000671386719
20
2.4100000858306885
10
18.704000473022461
20
2.6289999485015869
10
18.485000610351562
20
2.8949999809265137
10
18.281000137329102
20
3.3129999637603764
10
18.191999435424805
20
3.8659999370574956
10
18.281000137329102
20
4.4200000762939453
0
LWPOLYLINE
5
146
100
AcDbEntity
8
0
100
AcDbPolyline
90
24
70
1
43
0.0
10
33.08599853515625
20
23.17499923706055
10
32.995998382568359
20
23.729000091552734
10
33.08599853515625
20
24.281999588012695
10
33.290000915527344
20
24.69899940490723
10
33.508998870849609
20
24.965999603271488
10
33.775001525878906
20
25.184999465942383
10
34.193000793457031
20
25.388999938964844
10
34.745998382568359
20
25.479000091552738
10
35.298999786376953
20
25.388999938964844
10
35.716999053955078
20
25.184999465942383
10
35.983001708984375
20
24.965999603271488
10
36.201999664306641
20
24.69899940490723
10
36.405998229980469
20
24.281999588012695
10
36.495998382568359
20
23.729000091552734
10
36.405998229980469
20
23.17499923706055
10
36.201999664306641
20
22.757999420166016
10
35.983001708984375
20
22.490999221801758
10
35.716999053955078
20
22.273000717163086
10
35.298999786376953
20
22.069000244140625
10
34.745998382568359
20
21.979000091552734
10
34.193000793457031
20
22.069000244140625
10
33.775001525878906
20
22.273000717163086
10
33.508998870849609
20
22.490999221801758
10
33.290000915527344
20
22.757999420166016
0
LWPOLYLINE
5
147
100
AcDbEntity
8
0
100
AcDbPolyline
90
24
70
1
43
0.0
10
118.28500366210939
20
143.65199279785156
10
118.19499969482422
20
143.0989990234375
10
117.99099731445312
20
142.68099975585938
10
117.77200317382814
20
142.41499328613281
10
117.50599670410156
20
142.19599914550781
10
117.08799743652344
20
141.99200439453125
10
116.53500366210938
20
141.90199279785156
10
115.9810028076172
20
141.99200439453125
10
115.56400299072266
20
142.19599914550781
10
115.2969970703125
20
142.41499328613281
10
115.07900238037109
20
142.68099975585938
10
114.875
20
143.0989990234375
10
114.78500366210938
20
143.65199279785156
10
114.875
20
144.20599365234375
10
115.07900238037109
20
144.62300109863281
10
115.2969970703125
20
144.88999938964844
10
115.56400299072266
20
145.10800170898438
10
115.9810028076172
20
145.31199645996094
10
116.53500366210938
20
145.40199279785156
10
117.08799743652344
20
145.31199645996094
10
117.50599670410156
20
145.10800170898438
10
117.77200317382814
20
144.88999938964844
10
117.99099731445312
20
144.62300109863281
10
118.19499969482422
20
144.20599365234375
0
LWPOLYLINE
5
148
100
AcDbEntity
8
0
100
AcDbPolyline
90
24
70
1
43
0.0
10
-42.277000427246094
20
25.184999465942383
10
-41.860000610351562
20
25.388999938964844
10
-41.305999755859375
20
25.479000091552738
10
-40.752998352050788
20
25.388999938964844
10
-40.334999084472656
20
25.184999465942383
10
-40.069000244140625
20
24.965999603271488
10
-39.849998474121094
20
24.69899940490723
10
-39.645999908447266
20
24.281999588012695
10
-39.555999755859375
20
23.729000091552734
10
-39.645999908447266
20
23.17499923706055
10
-39.849998474121094
20
22.757999420166016
10
-40.069000244140625
20
22.490999221801758
10
-40.334999084472656
20
22.273000717163086
10
-40.752998352050788
20
22.069000244140625
10
-41.305999755859375
20
21.979000091552734
10
-41.860000610351562
20
22.069000244140625
10
-42.277000427246094
20
22.273000717163086
10
-42.543998718261726
20
22.490999221801758
10
-42.762001037597656
20
22.757999420166016
10
-42.965999603271491
20
23.17499923706055
10
-43.055999755859375
20
23.729000091552734
10
-42.965999603271491
20
24.281999588012695
10
-42.762001037597656
20
24.69899940490723
10
-42.543998718261726
20
24.965999603271488
0
ENDSEC
0
SECTION
2
OBJECTS
0
DICTIONARY
5
C
100
AcDbDictionary
3
ACAD_GROUP
350
D
3
ACAD_MLINESTYLE
350
17
0
DICTIONARY
5
D
100
AcDbDictionary
0
DICTIONARY
5
1A
330
C
100
AcDbDictionary
0
DICTIONARY
5
17
100
AcDbDictionary
0
ENDSEC
0
EOF
