0
SECTION
2
HEADER
9
$INSUNITS
70
4
9
$ACADVER
1
AC1014
9
$HANDSEED
5
FFFF
0
ENDSEC
0
SECTION
2
TABLES
0
TABLE
2
VPORT
5
8
100
AcDbSymbolTable
0
ENDTAB
0
TABLE
2
LTYPE
5
5
100
AcDbSymbolTable
0
LTYPE
5
14
100
AcDbSymbolTableRecord
100
AcDbLinetypeTableRecord
2
BYBLOCK
70
0
0
LTYPE
5
15
100
AcDbSymbolTableRecord
100
AcDbLinetypeTableRecord
2
BYLAYER
70
0
0
LTYPE
5
16
100
AcDbSymbolTableRecord
100
AcDbLinetypeTableRecord
2
DASHED
70
0
3
Dashed __ __ __ __ __ __ __ __ __ __ __ __ __ _
72
65
73
2
40
0.75
49
0.5
74
0
49
-0.25
74
0
0
ENDTAB
0
TABLE
2
LAYER
5
2
100
AcDbSymbolTable
70
2
0
LAYER
5
50
100
AcDbSymbolTableRecord
100
AcDbLayerTableRecord
2
0
70
0
62
7
6
CONTINUOUS
0
ENDTAB
0
TABLE
2
STYLE
5
3
100
AcDbSymbolTable
70
1
0
STYLE
5
11
100
AcDbSymbolTableRecord
100
AcDbTextStyleTableRecord
2
STANDARD
70
0
0
ENDTAB
0
TABLE
2
VIEW
5
6
100
AcDbSymbolTable
70
0
0
ENDTAB
0
TABLE
2
UCS
5
7
100
AcDbSymbolTable
70
0
0
ENDTAB
0
TABLE
2
APPID
5
9
100
AcDbSymbolTable
70
2
0
APPID
5
12
100
AcDbSymbolTableRecord
100
AcDbRegAppTableRecord
2
ACAD
70
0
0
ENDTAB
0
TABLE
2
DIMSTYLE
5
A
100
AcDbSymbolTable
70
1
0
ENDTAB
0
TABLE
2
BLOCK_RECORD
5
1
100
AcDbSymbolTable
70
1
0
BLOCK_RECORD
5
1F
100
AcDbSymbolTableRecord
100
AcDbBlockTableRecord
2
*MODEL_SPACE
0
BLOCK_RECORD
5
1B
100
AcDbSymbolTableRecord
100
AcDbBlockTableRecord
2
*PAPER_SPACE
0
ENDTAB
0
ENDSEC
0
SECTION
2
BLOCKS
0
BLOCK
5
20
100
AcDbEntity
100
AcDbBlockBegin
2
*MODEL_SPACE
0
ENDBLK
5
21
100
AcDbEntity
100
AcDbBlockEnd
0
BLOCK
5
1C
100
AcDbEntity
100
AcDbBlockBegin
2
*PAPER_SPACE
0
ENDBLK
5
1D
100
AcDbEntity
100
AcDbBlockEnd
0
ENDSEC
0
SECTION
2
ENTITIES
0
LWPOLYLINE
5
100
100
AcDbEntity
8
0
100
AcDbPolyline
90
6
70
1
43
0.0
10
257.62351218248239
20
317.00849999999997
10
310.61501352002432
20
317.00849999999997
10
310.61501352002432
20
389.00000000000006
10
150.61501352002435
20
389.00000000000006
10
150.61501352002432
20
317.00849999999997
10
203.60651485756625
20
317.00849999999997
42
-0.99968533376977886
0
LWPOLYLINE
5
101
100
AcDbEntity
8
0
100
AcDbPolyline
90
24
70
1
43
0.0
10
292.38201371838858
20
327.84099960327148
10
292.05901376416494
20
327.72000122070318
10
291.71901361157711
20
327.66400146484381
10
291.25501290967281
20
327.69599914550781
10
290.73101274182608
20
327.89500045776373
10
290.29701272656729
20
328.24900054931641
10
290.03701440503409
20
328.63399887084961
10
289.91601411511709
20
328.95700073242188
10
289.86001435925772
20
329.29700088500977
10
289.89101258923819
20
329.76100158691406
10
290.0900139014941
20
330.28499984741211
10
290.44501344373037
20
330.71900177001959
10
290.83001367261221
20
330.97900009155273
10
291.15301362683584
20
331.09999847412109
10
291.49301377942373
20
331.15599822998047
10
291.95701257397945
20
331.12500000000006
10
292.48101274182608
20
330.92599868774414
10
292.91501275708487
20
330.57099914550781
10
293.1750129859667
20
330.18600082397461
10
293.29601327588369
20
329.86299896240234
10
293.35201303174307
20
329.52299880981451
10
293.32001344373043
20
329.05899810791021
10
293.12101403882315
20
328.53499984741211
10
292.76701394727041
20
328.10100173950195
0
LWPOLYLINE
5
102
100
AcDbEntity
8
0
100
AcDbPolyline
90
24
70
1
43
0.0
10
168.65500680615713
20
331.01300048828131
10
168.97701303174307
20
331.1349983215332
10
169.31801644971185
20
331.19100189208984
10
169.78101388623526
20
331.15900039672852
10
170.30501596143057
20
330.95999908447266
10
170.74001352002432
20
330.60499954223638
10
170.99901620557119
20
330.22000122070318
10
171.12101022412588
20
329.89699935913086
10
171.17700997998526
20
329.55699920654297
10
171.14501229932119
20
329.09299850463867
10
170.94600717236807
20
328.56900024414068
10
170.59101144482901
20
328.1349983215332
10
170.20601693799307
20
327.87599945068359
10
169.88301889111807
20
327.75400161743164
10
169.54300729443841
20
327.69800186157227
10
169.08000985791494
20
327.72999954223633
10
168.55501596143057
20
327.92900085449219
10
168.12101022412588
20
328.28300094604492
10
167.86200753857901
20
328.66899871826172
10
167.74001352002432
20
328.99100112915045
10
167.68401376416494
20
329.33200073242188
10
167.71601144482901
20
329.79499816894531
10
167.91501657178213
20
330.31900024414062
10
168.26902047803213
20
330.7540016174317
0
CIRCLE
5
103
100
AcDbEntity
8
0
100
AcDbCircle
10
306.85498985290531
20
321.00000000000074
30
3.219646771412954e-14
40
1.5684999999999971
210
7.03616127289015e-16
220
-2.2204460492503136e-16
230
1
0
CIRCLE
5
104
100
AcDbEntity
8
0
100
AcDbCircle
10
306.85498985290531
20
329.94000000000062
30
3.5527136788005009e-14
40
1.5684999999999973
210
7.036161272890147e-16
220
-2.2204460492503136e-16
230
1
0
CIRCLE
5
105
100
AcDbEntity
8
0
100
AcDbCircle
10
306.85498985290531
20
337.94000000000062
30
3.5527136788005009e-14
40
1.5684999999999971
210
7.03616127289015e-16
220
-2.2204460492503136e-16
230
1
0
CIRCLE
5
106
100
AcDbEntity
8
0
100
AcDbCircle
10
154.25498947143555
20
321.00000000000074
30
2.1649348980190553e-14
40
1.5684999999999971
210
7.03616127289015e-16
220
-2.2204460492503136e-16
230
1
0
CIRCLE
5
107
100
AcDbEntity
8
0
100
AcDbCircle
10
154.25498947143555
20
329.94000000000062
30
2.1649348980190553e-14
40
1.5684999999999973
210
7.036161272890147e-16
220
-2.2204460492503136e-16
230
1
0
CIRCLE
5
108
100
AcDbEntity
8
0
100
AcDbCircle
10
154.25498947143555
20
337.94000000000062
30
2.4980018054066022e-14
40
1.5684999999999971
210
7.03616127289015e-16
220
-2.2204460492503136e-16
230
1
0
ENDSEC
0
SECTION
2
OBJECTS
0
DICTIONARY
5
C
100
AcDbDictionary
3
ACAD_GROUP
350
D
3
ACAD_MLINESTYLE
350
17
0
DICTIONARY
5
D
100
AcDbDictionary
0
DICTIONARY
5
1A
330
C
100
AcDbDictionary
0
DICTIONARY
5
17
100
AcDbDictionary
0
ENDSEC
0
EOF
